<svg width="109" height="82" viewBox="0 0 109 82" fill="none" xmlns="http://www.w3.org/2000/svg">
<path d="M55.2555 81.4531C84.7432 81.4531 108.648 72.0756 108.648 60.5078C108.648 48.94 84.7432 39.5625 55.2555 39.5625C25.7678 39.5625 1.86328 48.94 1.86328 60.5078C1.86328 72.0756 25.7678 81.4531 55.2555 81.4531Z" fill="#F4F7FB"/>
<path d="M84.0151 33.5446C84.0299 33.5125 84.0398 33.4778 84.0546 33.4457C84.0918 33.3591 84.1264 33.2701 84.1585 33.181C84.1759 33.1291 84.1932 33.0746 84.2105 33.0227C84.2377 32.9337 84.26 32.8446 84.2822 32.7556C84.2946 32.7011 84.307 32.6492 84.3168 32.5948C84.3342 32.4983 84.3465 32.4018 84.3589 32.3029C84.3639 32.2559 84.3713 32.2114 84.3737 32.1644C84.3836 32.0209 84.3886 31.875 84.3812 31.729C84.3762 31.6424 84.3713 31.5559 84.3614 31.4693C84.3589 31.4396 84.3515 31.4124 84.349 31.3852C84.3416 31.3283 84.3342 31.2739 84.3218 31.2195C84.3218 31.217 84.3218 31.212 84.3193 31.2096C84.3144 31.1799 84.3045 31.1502 84.2971 31.118C84.2872 31.071 84.2773 31.024 84.2649 30.977C84.255 30.9424 84.2451 30.9103 84.2327 30.8756C84.2179 30.8311 84.2055 30.7866 84.1907 30.7445C84.1882 30.7396 84.1882 30.7322 84.1858 30.7272C84.1833 30.7173 84.1759 30.7074 84.1734 30.6975C84.1338 30.5912 84.0893 30.4873 84.0373 30.3858C84.0324 30.3784 84.0299 30.3685 84.0274 30.3611C84.025 30.3586 84.0225 30.3537 84.0225 30.3512C83.9755 30.2572 83.9211 30.1682 83.8642 30.0816C83.8592 30.0717 83.8543 30.0618 83.8469 30.0544C83.8221 30.0173 83.7949 29.9802 83.7677 29.9431L79.2138 23.7344C79.246 23.7789 79.2781 23.8259 79.3078 23.8729C79.3647 23.9595 79.4191 24.0485 79.4661 24.1425C79.4711 24.1549 79.4785 24.1673 79.4835 24.1796C79.5329 24.281 79.5799 24.3849 79.6195 24.4913C79.6245 24.5061 79.6319 24.5235 79.6368 24.5383C79.6517 24.5803 79.664 24.6249 79.6789 24.6694C79.6888 24.704 79.7011 24.7362 79.711 24.7708C79.7234 24.8178 79.7333 24.8648 79.7457 24.9118C79.7531 24.9464 79.763 24.9786 79.7679 25.0132C79.7778 25.0676 79.7852 25.1245 79.7951 25.1789C79.8001 25.2062 79.805 25.2358 79.8075 25.2631C79.8174 25.3472 79.8248 25.4337 79.8298 25.5228C79.8372 25.6687 79.8322 25.8122 79.8223 25.9581C79.8199 26.0051 79.8124 26.0521 79.8075 26.0967C79.7976 26.1931 79.7852 26.2921 79.7654 26.3885C79.7556 26.443 79.7432 26.4949 79.7308 26.5493C79.711 26.6384 79.6863 26.7274 79.6591 26.8165C79.6418 26.8709 79.6269 26.9228 79.6071 26.9748C79.575 27.0638 79.5403 27.1504 79.5032 27.2394C79.4835 27.2864 79.4661 27.3334 79.4439 27.378C79.3746 27.5264 79.2979 27.6723 79.2114 27.8158C79.1891 27.8529 79.1644 27.8875 79.1421 27.9222C79.0877 28.0087 79.0308 28.0928 78.9689 28.1769C78.9318 28.2289 78.8898 28.2784 78.8502 28.3278C78.8057 28.3847 78.7612 28.4416 78.7117 28.496C78.6647 28.548 78.6177 28.5999 78.5682 28.6494C78.5237 28.6964 78.4792 28.7434 78.4347 28.7879C78.3827 28.8399 78.3258 28.8893 78.2714 28.9388C78.2269 28.9784 78.1823 29.0204 78.1353 29.0575C78.0785 29.1045 78.0166 29.1491 77.9573 29.1961C77.9078 29.2332 77.8608 29.2703 77.8113 29.3049C77.7544 29.3445 77.6975 29.3791 77.6382 29.4162C77.5788 29.4558 77.5194 29.4954 77.4551 29.53C77.4056 29.5572 77.3562 29.5844 77.3067 29.6092C77.2251 29.6537 77.1434 29.6957 77.0593 29.7353C77.0148 29.7576 76.9678 29.7749 76.9208 29.7947C76.8021 29.8441 76.6834 29.8911 76.5597 29.9332C76.5003 29.953 76.4385 29.9752 76.3766 29.9926C76.3445 30.0024 76.3148 30.0099 76.2826 30.0198C76.1614 30.0519 76.0377 30.0816 75.9141 30.1063L80.4679 36.3151C80.5941 36.2928 80.7178 36.2606 80.839 36.2285C80.8711 36.2211 80.9008 36.2112 80.933 36.2013C80.9651 36.1914 80.9973 36.1839 81.0294 36.1741C81.0591 36.1642 81.0863 36.1518 81.116 36.1419C81.2372 36.0998 81.3584 36.0553 81.4772 36.0034C81.5044 35.991 81.5365 35.9836 81.5637 35.9712C81.5811 35.9638 81.5984 35.9539 81.6157 35.944C81.6998 35.9044 81.7814 35.8624 81.8631 35.8179C81.9026 35.7981 81.9422 35.7808 81.9793 35.7585C81.9917 35.7511 82.0016 35.7436 82.0115 35.7387C82.0733 35.7016 82.1327 35.662 82.1945 35.6249C82.2415 35.5952 82.291 35.568 82.3355 35.5359C82.3454 35.5284 82.3553 35.521 82.3652 35.5136C82.4147 35.479 82.4617 35.4419 82.5111 35.4048C82.5581 35.3677 82.6076 35.3355 82.6546 35.2984C82.667 35.2885 82.6769 35.2761 82.6892 35.2663C82.7362 35.2291 82.7808 35.1871 82.8253 35.1475C82.8673 35.1104 82.9094 35.0758 82.9514 35.0387C82.9638 35.0263 82.9762 35.0115 82.991 34.9991C83.038 34.9546 83.0801 34.9076 83.1246 34.8606C83.1592 34.8235 83.1963 34.7888 83.2309 34.7517C83.2433 34.7369 83.2557 34.7221 83.268 34.7072C83.315 34.6528 83.3596 34.5959 83.4066 34.539C83.4363 34.5019 83.4684 34.4673 83.4981 34.4277C83.508 34.4153 83.5154 34.4005 83.5253 34.3881C83.5871 34.3065 83.644 34.2199 83.6985 34.1333C83.7182 34.1037 83.7405 34.074 83.7603 34.0443C83.7628 34.0394 83.7652 34.0319 83.7702 34.027C83.8568 33.886 83.9334 33.74 84.0027 33.5892C84.0002 33.5694 84.0101 33.557 84.0151 33.5446Z" fill="#70798E"/>
<path d="M80.4653 36.801C80.3094 36.801 80.161 36.7268 80.067 36.5981L75.5131 30.3894C75.4216 30.2657 75.3944 30.105 75.4389 29.9565C75.4834 29.8081 75.5948 29.6894 75.7382 29.635C75.7654 29.6251 75.7926 29.6177 75.8223 29.6127C75.9336 29.5929 76.0449 29.5657 76.1538 29.536L76.2379 29.5113C76.2775 29.4989 76.317 29.4866 76.3566 29.4717L76.4011 29.4569C76.5125 29.4198 76.6188 29.3777 76.7252 29.3332L76.7747 29.3134C76.7994 29.3035 76.8241 29.2936 76.8489 29.2813C76.9231 29.2466 76.9973 29.207 77.0715 29.1675L77.1284 29.1378C77.1556 29.1229 77.1803 29.1106 77.2075 29.0957C77.2471 29.0735 77.2867 29.0463 77.3263 29.0215L77.4178 28.9646C77.4549 28.9424 77.492 28.9176 77.5266 28.8929C77.5563 28.8731 77.586 28.8484 77.6157 28.8261L77.6825 28.7766C77.7295 28.742 77.774 28.7074 77.8185 28.6703C77.8482 28.6455 77.8779 28.6183 77.9076 28.5936L77.9422 28.5639C77.9917 28.5194 78.0436 28.4749 78.0906 28.4279C78.1252 28.3957 78.1574 28.3611 78.1896 28.3265L78.2093 28.3042C78.2539 28.2572 78.2984 28.2127 78.3404 28.1657C78.38 28.1211 78.4171 28.0741 78.4518 28.0296L78.4864 27.9851C78.5136 27.9505 78.5433 27.9158 78.5705 27.8787C78.6249 27.8045 78.6768 27.7278 78.7263 27.6512L78.761 27.5992C78.7708 27.5844 78.7807 27.572 78.7882 27.5572C78.8624 27.4359 78.9292 27.3073 78.9959 27.1663C79.0083 27.1367 79.0207 27.107 79.0355 27.0773L79.0504 27.0427C79.0825 26.966 79.1147 26.8868 79.1419 26.8077C79.1592 26.7607 79.174 26.7137 79.1889 26.6642C79.2111 26.59 79.2309 26.5108 79.2507 26.4342C79.2631 26.3748 79.273 26.3352 79.2829 26.2932C79.2977 26.2091 79.3101 26.1249 79.3175 26.0408L79.3249 25.9765C79.3274 25.9568 79.3299 25.937 79.3324 25.9147C79.3422 25.7787 79.3447 25.655 79.3398 25.5412C79.3373 25.4645 79.3299 25.3903 79.3225 25.3161L79.3126 25.2468C79.3051 25.1899 79.2977 25.1454 79.2903 25.1034L79.2705 25.0193C79.2705 25.0193 79.2656 24.9945 79.2656 24.992C79.2581 24.9599 79.2507 24.9277 79.2433 24.8956L79.2161 24.8115C79.2037 24.7694 79.1938 24.7323 79.1815 24.6977C79.1815 24.6952 79.1691 24.6655 79.1666 24.6631C79.132 24.5691 79.0924 24.48 79.0504 24.3959C79.0479 24.391 79.038 24.3687 79.0355 24.3638C78.9959 24.2871 78.9514 24.2129 78.9044 24.1387C78.8772 24.0966 78.85 24.057 78.8228 24.0199C78.662 23.7998 78.7115 23.4906 78.9316 23.3298C79.1518 23.169 79.461 23.216 79.6218 23.4362L84.1756 29.6449C84.2078 29.6869 84.2375 29.7314 84.2672 29.776C84.2721 29.7859 84.2845 29.8032 84.2919 29.8155C84.3587 29.9194 84.4131 30.011 84.4626 30.1025C84.4675 30.1099 84.47 30.1173 84.4725 30.1223C84.4824 30.1445 84.4898 30.1594 84.4972 30.1742C84.5492 30.2781 84.5986 30.3894 84.6407 30.5057C84.6481 30.5205 84.653 30.5354 84.6605 30.5527C84.6629 30.5626 84.6704 30.5799 84.6728 30.5898C84.6827 30.617 84.6951 30.659 84.7099 30.7036L84.7273 30.7555C84.7371 30.7827 84.7446 30.8099 84.752 30.8396C84.7644 30.8891 84.7767 30.9336 84.7866 30.9806L84.799 31.0301C84.8064 31.0548 84.8114 31.082 84.8163 31.1092C84.8188 31.1167 84.8188 31.1241 84.8213 31.134C84.8311 31.1909 84.8386 31.2453 84.8485 31.2997L84.8534 31.3393C84.8559 31.3615 84.8608 31.3838 84.8633 31.4061C84.8757 31.5075 84.8831 31.6064 84.888 31.7054C84.8955 31.8563 84.893 32.017 84.8806 32.1951C84.8781 32.2347 84.8732 32.2718 84.8682 32.3089L84.8633 32.3535C84.8509 32.4648 84.8361 32.5736 84.8163 32.6824C84.8064 32.7369 84.794 32.7913 84.7817 32.8457C84.7545 32.962 84.7297 33.0609 84.6976 33.1598C84.6803 33.2192 84.6605 33.2786 84.6407 33.3379C84.606 33.4369 84.5665 33.5358 84.5269 33.6323L84.517 33.657C84.5071 33.6867 84.4947 33.7139 84.4824 33.7436V33.7461C84.4774 33.7585 84.4601 33.7931 84.4527 33.8054C84.3834 33.9539 84.2993 34.1147 84.2103 34.2631C84.2053 34.273 84.1979 34.2853 84.193 34.2928C84.1781 34.3175 84.1608 34.3422 84.141 34.3694L84.1262 34.3917C84.0643 34.4882 84.0025 34.5822 83.9332 34.6737C83.9258 34.686 83.9134 34.7034 83.9011 34.7182C83.8813 34.7454 83.8566 34.7751 83.8318 34.8048L83.8021 34.8394C83.7452 34.9111 83.6982 34.968 83.6512 35.0224C83.6364 35.0422 83.624 35.0571 83.6092 35.0719C83.582 35.1016 83.5548 35.1313 83.5251 35.1585L83.4682 35.2154C83.4261 35.2599 83.3866 35.302 83.342 35.344C83.3272 35.3613 83.3148 35.3737 83.3 35.3861C83.2678 35.4182 83.2332 35.4454 83.201 35.4751L83.1268 35.5394C83.0897 35.5741 83.0502 35.6062 83.0131 35.6384L82.976 35.6705C82.9389 35.7002 82.9017 35.7274 82.8646 35.7546L82.7756 35.8214C82.736 35.8511 82.6964 35.8808 82.6569 35.908C82.6494 35.9154 82.6371 35.9253 82.6222 35.9327C82.5851 35.9575 82.5505 35.9797 82.5134 36.002L82.4342 36.0515C82.3798 36.0861 82.3229 36.1232 82.266 36.1554C82.2586 36.1603 82.2438 36.1702 82.2289 36.1776C82.1968 36.1949 82.1671 36.2098 82.1349 36.2271L82.1003 36.2444C82.0113 36.2914 81.9222 36.3384 81.8307 36.3829C81.8109 36.3928 81.7911 36.4027 81.7713 36.4126C81.7441 36.425 81.7169 36.4349 81.6872 36.4448C81.5487 36.5041 81.4151 36.5536 81.2791 36.6006C81.242 36.6154 81.2123 36.6278 81.1826 36.6377C81.1554 36.6451 81.1306 36.6526 81.1059 36.66L80.9723 36.6971C80.8165 36.7391 80.6854 36.7688 80.5617 36.7935C80.5271 36.7985 80.4949 36.801 80.4653 36.801ZM76.7376 30.3869L80.673 35.7522C80.6854 35.7497 80.6978 35.7447 80.7077 35.7423L80.8783 35.6953C80.908 35.6829 80.9303 35.673 80.9526 35.6656C81.0639 35.6285 81.1702 35.5864 81.2766 35.5419C81.2989 35.532 81.3236 35.5221 81.3483 35.5147C81.3681 35.5048 81.3854 35.4949 81.4027 35.4875C81.477 35.4529 81.5487 35.4133 81.6229 35.3762C81.6452 35.3638 81.6674 35.3539 81.6897 35.3416C81.7021 35.3341 81.7169 35.3292 81.7293 35.3218C81.7317 35.3193 81.7441 35.3119 81.7589 35.3044C81.801 35.2797 81.843 35.2525 81.8851 35.2253L81.989 35.161C82.0088 35.1486 82.031 35.1362 82.0508 35.1214L82.0756 35.1016C82.1052 35.0818 82.1325 35.0596 82.1621 35.0373L82.2685 34.9581C82.2908 34.9408 82.3155 34.926 82.3378 34.9062L82.3674 34.879C82.3971 34.8543 82.4243 34.8295 82.4515 34.8048L82.5431 34.7232C82.5629 34.7058 82.5827 34.6885 82.6024 34.6712L82.6395 34.6341C82.6717 34.602 82.7039 34.5698 82.736 34.5352L82.8102 34.4585C82.8251 34.4436 82.8399 34.4288 82.8547 34.4115C82.8646 34.3966 82.877 34.3843 82.8894 34.3694C82.9265 34.3274 82.9636 34.2804 83.0007 34.2334L83.0601 34.1616C83.0724 34.1468 83.0823 34.1344 83.0947 34.1196C83.0996 34.1097 83.1145 34.0874 83.1219 34.08C83.1738 34.0083 83.2258 33.9316 83.2753 33.8549C83.2876 33.8351 83.3025 33.8153 83.3148 33.7956L83.3247 33.7807C83.3297 33.7733 83.3346 33.7659 83.3396 33.7584C83.4113 33.6397 83.4806 33.5086 83.5449 33.3726C83.5498 33.3651 83.5572 33.3454 83.5647 33.333C83.5795 33.2934 83.5894 33.2687 83.5993 33.2464C83.6315 33.1722 83.6611 33.0931 83.6883 33.0139C83.7032 32.9669 83.718 32.9224 83.7329 32.8754C83.7576 32.7987 83.7774 32.7196 83.7947 32.6404C83.8071 32.5835 83.817 32.5439 83.8244 32.5019C83.8417 32.4153 83.8516 32.3312 83.8615 32.2446L83.8689 32.1852C83.8714 32.1655 83.8739 32.1432 83.8763 32.1234C83.8862 31.9874 83.8887 31.8637 83.8838 31.7499C83.8813 31.6732 83.8739 31.599 83.8664 31.5248L83.8541 31.4531C83.8467 31.3962 83.8392 31.3517 83.8318 31.3096C83.8318 31.3071 83.8318 31.3046 83.8293 31.2997L83.8046 31.1958C83.7972 31.1637 83.7898 31.1315 83.7823 31.1018L83.7551 31.0177C83.7551 31.0177 83.7477 30.9954 83.7477 30.993C83.7378 30.9633 83.7304 30.9336 83.7205 30.9064C83.7205 30.9039 83.718 30.9014 83.718 30.8965C83.7131 30.8866 83.7106 30.8767 83.7081 30.8742C83.671 30.7753 83.6339 30.6887 83.5919 30.6046C83.5894 30.5972 83.5845 30.5873 83.5795 30.5774C83.535 30.4933 83.4905 30.4191 83.4435 30.3474C83.4385 30.34 83.4311 30.3251 83.4237 30.3152C83.4039 30.2831 83.3841 30.2583 83.3643 30.2311L80.302 26.0532C80.2995 26.0681 80.2995 26.0829 80.2971 26.0977L80.2921 26.1423C80.2797 26.2536 80.2649 26.3624 80.2451 26.4713C80.2352 26.5282 80.2228 26.5826 80.208 26.637C80.1808 26.7508 80.1561 26.8497 80.1264 26.9487C80.1066 27.0105 80.0893 27.0699 80.0695 27.1268C80.0349 27.2257 79.9953 27.3246 79.9557 27.4211L79.9433 27.4508C79.926 27.4928 79.9087 27.5349 79.8889 27.5745C79.8098 27.7476 79.7232 27.9109 79.6317 28.0593C79.6143 28.0865 79.597 28.1162 79.5772 28.1434L79.555 28.178C79.4931 28.2745 79.4313 28.3685 79.362 28.46C79.3274 28.507 79.2903 28.5515 79.2557 28.5961L79.2334 28.6233C79.174 28.695 79.1295 28.7544 79.08 28.8088C79.0306 28.8657 78.9762 28.9226 78.9217 28.9795L78.9044 28.9993C78.8624 29.0438 78.8203 29.0883 78.7758 29.1304C78.7164 29.1873 78.6571 29.2417 78.5952 29.2961L78.5655 29.3233C78.526 29.3579 78.4889 29.3926 78.4468 29.4272C78.3924 29.4742 78.333 29.5162 78.2761 29.5608L78.2143 29.6078C78.1747 29.6375 78.1351 29.6696 78.0931 29.6968C78.0436 29.7314 77.9941 29.7636 77.9447 29.7933L77.8606 29.8477C77.8086 29.8799 77.7567 29.9145 77.7047 29.9442C77.6651 29.9664 77.6256 29.9887 77.586 30.0085L77.5415 30.0332C77.4524 30.0802 77.3609 30.1297 77.2694 30.1717C77.2323 30.1891 77.1952 30.2039 77.1581 30.2187L77.116 30.2361C76.9899 30.293 76.8637 30.3424 76.7376 30.3869Z" fill="#F4F7FB"/>
<path d="M76.4954 29.9844L81.0492 36.1956L80.4679 36.3019L75.9141 30.0932L76.4954 29.9844Z" fill="#DDE1E6"/>
<path d="M80.4663 36.8001C80.3105 36.8001 80.162 36.7259 80.068 36.5973L75.5142 30.3886C75.4127 30.2525 75.3905 30.072 75.4523 29.9137C75.5142 29.7554 75.6552 29.6416 75.8209 29.6094L76.4022 29.5006C76.5902 29.4659 76.7782 29.5401 76.892 29.6935L81.4458 35.9022C81.5473 36.0383 81.5695 36.2188 81.5077 36.3772C81.4458 36.5355 81.3048 36.6492 81.1366 36.6814L80.5553 36.7902C80.5281 36.7977 80.496 36.8001 80.4663 36.8001Z" fill="#F4F7FB"/>
<path d="M85.2361 38.1809C85.0827 38.1809 84.9343 38.1116 84.8379 37.978L84.8354 37.9756C84.2021 37.1123 83.1558 36.62 81.9635 36.62C81.6939 36.62 81.4169 36.6448 81.1374 36.6967C80.9519 36.7313 80.7614 36.6547 80.6501 36.5038L76.0962 30.2951C75.9948 30.1565 75.9725 29.9784 76.0344 29.8201C76.0962 29.6618 76.2372 29.548 76.4054 29.5159C76.7418 29.454 77.0807 29.4219 77.4097 29.4219C78.921 29.4219 80.2592 30.065 81.0805 31.1855L85.6319 37.3918L85.6344 37.3943C85.7951 37.6144 85.7481 37.9236 85.528 38.0869C85.4414 38.1487 85.3375 38.1809 85.2361 38.1809ZM81.9635 35.6281C82.4038 35.6281 82.8293 35.6825 83.23 35.7864L80.2815 31.7668C79.6483 30.9036 78.6019 30.4064 77.4072 30.4064L81.2685 35.6726C81.5035 35.643 81.736 35.6281 81.9635 35.6281Z" fill="#F4F7FB"/>
<mask id="mask0_6758_21108" style="mask-type:luminance" maskUnits="userSpaceOnUse" x="76" y="29" width="10" height="10">
<path d="M85.2361 38.1887C85.0827 38.1887 84.9343 38.1194 84.8379 37.9858L84.8354 37.9834C84.2021 37.1201 83.1558 36.6278 81.9635 36.6278C81.6939 36.6278 81.4169 36.6526 81.1374 36.7045C80.9519 36.7392 80.7614 36.6625 80.6501 36.5116L76.0962 30.3029C75.9948 30.1644 75.9725 29.9863 76.0344 29.8279C76.0962 29.6696 76.2372 29.5558 76.4054 29.5237C76.7418 29.4618 77.0807 29.4297 77.4097 29.4297C78.921 29.4297 80.2592 30.0728 81.0805 31.1934L85.6319 37.3996L85.6344 37.4021C85.7951 37.6222 85.7481 37.9314 85.528 38.0947C85.4414 38.1565 85.3375 38.1887 85.2361 38.1887ZM81.9635 35.6359C82.4038 35.6359 82.8293 35.6904 83.23 35.7942L80.2815 31.7747C79.6483 30.9114 78.6019 30.4142 77.4072 30.4142L81.2685 35.6805C81.5035 35.6508 81.736 35.6359 81.9635 35.6359Z" fill="white"/>
</mask>
<g mask="url(#mask0_6758_21108)">
<path d="M80.6814 31.4827L85.2353 37.6914C84.5229 36.7193 83.3356 36.1306 81.9652 36.1306C81.6684 36.1306 81.3616 36.1578 81.05 36.2147L76.4961 30.006C76.8078 29.9491 77.1145 29.9219 77.4113 29.9219C78.7842 29.9243 79.969 30.5131 80.6814 31.4827Z" fill="#DDE1E6"/>
<path d="M85.2375 38.1887C85.0842 38.1887 84.9358 38.1194 84.8393 37.9858C84.2061 37.1225 83.1597 36.6278 81.9675 36.6278C81.6978 36.6278 81.4208 36.6526 81.1413 36.7045C80.9558 36.7391 80.7653 36.6625 80.654 36.5116L76.1001 30.3029C75.9987 30.1643 75.9764 29.9862 76.0383 29.8279C76.1001 29.6696 76.2411 29.5558 76.4093 29.5237C76.7457 29.4618 77.0846 29.4297 77.4136 29.4297C78.9249 29.4297 80.2632 30.0728 81.0844 31.1909L85.6383 37.3996C85.7991 37.6197 85.7521 37.9289 85.5319 38.0922C85.4404 38.1565 85.339 38.1887 85.2375 38.1887ZM81.965 35.6384C82.4053 35.6384 82.8307 35.6928 83.2315 35.7967L80.2829 31.7746C79.6497 30.9114 78.6034 30.4166 77.4111 30.4166L81.2724 35.6829C81.5049 35.6532 81.7374 35.6384 81.965 35.6384Z" fill="#F4F7FB"/>
</g>
<path d="M76.8909 38.7812L81.4447 44.99L81.2048 45.037L76.6484 38.8258L76.8909 38.7812Z" fill="#F4F7FB"/>
<path d="M81.2007 45.5327C81.0448 45.5327 80.8964 45.4585 80.8024 45.3299L76.2485 39.1211C76.1471 38.9851 76.1249 38.8045 76.1867 38.6462C76.2485 38.4879 76.3871 38.3741 76.5553 38.342L76.7952 38.2975C76.9807 38.2628 77.1737 38.337 77.285 38.4904L81.8389 44.6991C81.9403 44.8352 81.9625 45.0157 81.9007 45.174C81.8389 45.3323 81.7003 45.4461 81.5321 45.4783L81.2922 45.5228C81.2625 45.5277 81.2328 45.5327 81.2007 45.5327Z" fill="#F4F7FB"/>
<path d="M85.4369 41.9889C85.4517 41.9568 85.469 41.9246 85.4839 41.8924C85.4962 41.8677 85.5086 41.8455 85.5185 41.8207C85.5606 41.7267 85.6001 41.6303 85.6372 41.5338C85.6447 41.514 85.6521 41.4942 85.6595 41.4744C85.704 41.3507 85.7461 41.2271 85.7807 41.1009C85.7832 41.091 85.7857 41.0836 85.7881 41.0737C85.8228 40.9451 85.85 40.8115 85.8747 40.6804C85.8796 40.6557 85.8846 40.6309 85.8871 40.6062C85.9069 40.4776 85.9217 40.3465 85.9316 40.2154C85.9341 40.1906 85.9341 40.1684 85.9341 40.1436C85.9415 40.0076 85.944 39.8691 85.9365 39.733C85.9316 39.6316 85.9242 39.5326 85.9118 39.4362C85.9069 39.404 85.9019 39.3719 85.897 39.3397C85.8871 39.2754 85.8796 39.2111 85.8673 39.1492C85.8673 39.1443 85.8673 39.1418 85.8648 39.1369C85.8574 39.1023 85.8475 39.0676 85.8401 39.033C85.8277 38.9786 85.8153 38.9241 85.803 38.8722C85.7931 38.8326 85.7782 38.793 85.7659 38.7535C85.751 38.704 85.7362 38.652 85.7189 38.6026C85.7164 38.5952 85.7139 38.5902 85.7114 38.5828C85.7065 38.5704 85.7016 38.5605 85.6966 38.5506C85.6496 38.4269 85.5977 38.3082 85.5408 38.192C85.5358 38.1821 85.5333 38.1722 85.5284 38.1623C85.5259 38.1573 85.5235 38.1549 85.521 38.1499C85.4641 38.0435 85.4047 37.9397 85.3379 37.8382C85.3305 37.8284 85.3256 37.816 85.3206 37.8061C85.2909 37.7616 85.2613 37.7195 85.2316 37.6775L80.6777 31.4688C80.7148 31.5207 80.7519 31.5751 80.7865 31.6295C80.8533 31.7309 80.9127 31.8324 80.9696 31.9412C80.977 31.956 80.9819 31.9709 80.9894 31.9832C81.0463 32.0995 81.0982 32.2182 81.1452 32.3419C81.1526 32.3592 81.16 32.3766 81.165 32.3939C81.1823 32.4433 81.1971 32.4928 81.212 32.5423C81.2244 32.5819 81.2367 32.6214 81.2491 32.661C81.2639 32.713 81.2738 32.7674 81.2862 32.8218C81.2961 32.8614 81.306 32.8985 81.3134 32.9381C81.3258 32.9999 81.3332 33.0642 81.3431 33.1285C81.348 33.1607 81.353 33.1928 81.3579 33.2275C81.3703 33.3239 81.3777 33.4254 81.3827 33.5243C81.3901 33.6628 81.3851 33.7989 81.3802 33.9349C81.3777 33.9596 81.3777 33.9819 81.3777 34.0066C81.3678 34.1377 81.353 34.2664 81.3332 34.3975C81.3282 34.4222 81.3258 34.4469 81.3208 34.4717C81.2986 34.6028 81.2689 34.7339 81.2342 34.865C81.2318 34.8749 81.2293 34.8848 81.2268 34.8922C81.1922 35.0183 81.1526 35.142 81.1056 35.2657C81.0982 35.2855 81.0908 35.3053 81.0834 35.3251C81.0364 35.4463 80.9844 35.565 80.93 35.6837C80.9152 35.7159 80.8978 35.7481 80.883 35.7802C80.8335 35.8816 80.7791 35.9806 80.7222 36.0795C80.7098 36.1018 80.695 36.1265 80.6826 36.1488C80.6554 36.1933 80.6233 36.2378 80.5936 36.2823C80.5293 36.3813 80.465 36.4778 80.3957 36.5718C80.3512 36.6311 80.3067 36.688 80.2597 36.7449C80.2077 36.8092 80.1558 36.8735 80.1013 36.9379C80.0494 36.9997 79.9925 37.0566 79.9356 37.1159C79.8861 37.1679 79.8342 37.2223 79.7823 37.2743C79.7204 37.3336 79.6586 37.3905 79.5943 37.4474C79.5423 37.4944 79.4928 37.5389 79.4384 37.5835C79.3716 37.6379 79.3024 37.6898 79.2331 37.7418C79.1787 37.7838 79.1243 37.8259 79.0674 37.8655C79.0031 37.91 78.9363 37.952 78.8695 37.9941C78.8002 38.0386 78.7335 38.0831 78.6617 38.1252C78.6048 38.1573 78.5479 38.187 78.491 38.2167C78.397 38.2662 78.303 38.3156 78.209 38.3602C78.0878 38.4171 77.9642 38.4715 77.8405 38.5185C77.8306 38.5234 77.8182 38.5259 77.8083 38.5308C77.6846 38.5778 77.556 38.6174 77.4274 38.657C77.3903 38.6669 77.3557 38.6768 77.3186 38.6867C77.1776 38.7238 77.0366 38.7584 76.8906 38.7856L81.4445 44.9943C81.588 44.9671 81.7314 44.9325 81.8724 44.8954C81.9095 44.8855 81.9442 44.8756 81.9813 44.8657C82.0184 44.8558 82.058 44.8459 82.0951 44.8336C82.1866 44.8039 82.2756 44.7742 82.3622 44.7396C82.3721 44.7346 82.3845 44.7321 82.3944 44.7272C82.5007 44.6876 82.6046 44.6431 82.706 44.5986C82.7258 44.5887 82.7456 44.5788 82.7654 44.5689C82.8619 44.5244 82.9559 44.4749 83.0499 44.4254C83.0944 44.4007 83.1414 44.3809 83.1834 44.3562C83.1958 44.3487 83.2082 44.3413 83.2205 44.3314C83.2923 44.2894 83.3591 44.2448 83.4283 44.2003C83.4827 44.1657 83.5396 44.1335 83.5916 44.0964C83.6039 44.089 83.6138 44.0791 83.6262 44.0692C83.6831 44.0296 83.7375 43.9876 83.7919 43.9455C83.8464 43.9035 83.9032 43.8664 83.9577 43.8219C83.9725 43.8095 83.9849 43.7971 83.9972 43.7872C84.0517 43.7427 84.1011 43.6982 84.1531 43.6512C84.2001 43.6091 84.252 43.5696 84.2966 43.525C84.3114 43.5102 84.3262 43.4929 84.3411 43.478C84.393 43.4261 84.4425 43.3741 84.4944 43.3197C84.534 43.2777 84.5785 43.2381 84.6156 43.1936C84.6305 43.1762 84.6429 43.1589 84.6602 43.1416C84.7146 43.0798 84.7665 43.0155 84.8185 42.9487C84.8531 42.9066 84.8902 42.8646 84.9224 42.8225C84.9347 42.8077 84.9422 42.7904 84.9545 42.7755C85.0238 42.6815 85.0881 42.5826 85.1524 42.4861C85.1747 42.4515 85.2019 42.4169 85.2242 42.3822C85.2291 42.3723 85.234 42.3624 85.2415 42.3525C85.2563 42.3303 85.2687 42.3055 85.281 42.2833C85.333 42.1893 85.3874 42.0903 85.4369 41.9889Z" fill="#70798E"/>
<path d="M81.4428 45.4891C81.287 45.4891 81.1386 45.4149 81.0446 45.2863L76.4907 39.0776C76.3893 38.9391 76.367 38.761 76.4289 38.6027C76.4907 38.4444 76.6317 38.3306 76.7999 38.2984C76.9162 38.2762 77.0374 38.2489 77.1883 38.2094L77.2897 38.1821C77.4035 38.1475 77.5197 38.1104 77.6335 38.0684C77.6385 38.0659 77.6632 38.0585 77.6681 38.056C77.7795 38.0139 77.8908 37.9645 78.0021 37.9125C78.0911 37.8705 78.1752 37.826 78.2618 37.7814L78.3236 37.7493C78.3558 37.732 78.388 37.7171 78.4176 37.6998C78.4671 37.6701 78.5141 37.6404 78.5636 37.6083L78.6625 37.544C78.7046 37.5168 78.7491 37.4896 78.7887 37.4623C78.8233 37.4376 78.8579 37.4129 78.8901 37.3857L78.9717 37.3238C79.0237 37.2842 79.0781 37.2447 79.13 37.2026C79.1622 37.1754 79.1968 37.1457 79.229 37.116L79.271 37.0789C79.3279 37.027 79.3873 36.975 79.4442 36.9231C79.4862 36.8835 79.5258 36.8415 79.5654 36.7994L79.5827 36.7796C79.6396 36.7203 79.6891 36.6708 79.7336 36.6164C79.7781 36.5644 79.8202 36.5125 79.8622 36.4605L79.8771 36.4407L79.9018 36.4086C79.934 36.3665 79.9686 36.3245 80.0007 36.2824C80.0651 36.1959 80.1244 36.1068 80.1813 36.0178L80.2234 35.9534C80.2357 35.9337 80.2506 35.9139 80.2629 35.8941L80.3001 35.8298C80.352 35.7407 80.4015 35.6492 80.446 35.5577C80.4608 35.528 80.4757 35.5008 80.488 35.4711C80.54 35.3623 80.587 35.2559 80.6266 35.1471L80.6464 35.0951C80.6859 34.9838 80.723 34.8725 80.7552 34.7612C80.7552 34.7562 80.7626 34.7365 80.7651 34.7315C80.7923 34.6301 80.817 34.5138 80.8393 34.3852L80.8517 34.3159C80.869 34.2021 80.8838 34.0834 80.8912 33.9721L80.8937 33.9103C80.9011 33.7742 80.9011 33.6555 80.8962 33.5466C80.8912 33.4576 80.8838 33.3685 80.8739 33.2844L80.8616 33.1979C80.8517 33.1286 80.8442 33.0816 80.8368 33.0346C80.8319 33.0123 80.8269 32.995 80.8245 32.9777L80.8071 32.8986C80.7997 32.8615 80.7898 32.8268 80.7824 32.7922L80.7404 32.6562C80.7305 32.624 80.7206 32.5918 80.7107 32.5597L80.6934 32.5176C80.6513 32.4088 80.6068 32.3049 80.5573 32.206L80.54 32.1713C80.4955 32.0848 80.4435 31.9957 80.3817 31.9017C80.347 31.8498 80.3198 31.8077 80.2902 31.7657L80.2877 31.7632C80.1269 31.543 80.1739 31.2338 80.394 31.0731C80.6142 30.9098 80.9234 30.9593 81.0842 31.1794L81.0867 31.1819L85.6381 37.3881C85.6727 37.4376 85.7073 37.4846 85.742 37.5341C85.7494 37.544 85.7667 37.5737 85.7716 37.5835C85.8384 37.6874 85.9052 37.7987 85.9621 37.9101C85.9646 37.915 85.967 37.9175 85.9695 37.9224C85.9745 37.9298 85.9794 37.9373 85.9819 37.9472C85.9893 37.9595 85.9943 37.9744 86.0017 37.9892C86.066 38.1178 86.1229 38.2489 86.1724 38.3825C86.1724 38.3825 86.1822 38.3998 86.1872 38.4196C86.1897 38.427 86.1946 38.4444 86.1971 38.4518C86.2095 38.4839 86.2218 38.5285 86.2367 38.573L86.2614 38.6497C86.2713 38.6818 86.2812 38.7115 86.2886 38.7437C86.3035 38.7956 86.3158 38.85 86.3257 38.902L86.3381 38.9539C86.3455 38.9836 86.3529 39.0108 86.3579 39.0405C86.3603 39.0479 86.3603 39.0603 86.3628 39.0677C86.3727 39.1221 86.3826 39.1889 86.3925 39.2557L86.3999 39.3002C86.4049 39.3274 86.4073 39.3522 86.4123 39.3794C86.4247 39.4882 86.4346 39.5995 86.4395 39.7133C86.4469 39.8518 86.4444 40.0002 86.437 40.1709L86.4321 40.2525C86.4222 40.3935 86.4049 40.5395 86.3826 40.6854L86.3727 40.7448L86.3678 40.7695C86.3381 40.9303 86.3084 41.0738 86.2713 41.2049C86.2688 41.2098 86.2639 41.2321 86.2614 41.237C86.2243 41.3681 86.1823 41.5017 86.1303 41.6452L86.108 41.7095C86.066 41.8183 86.0239 41.9247 85.9769 42.0286C85.967 42.0484 85.9596 42.0682 85.9497 42.0855L85.8879 42.2116C85.8879 42.2116 85.8879 42.2141 85.8854 42.2141C85.831 42.3254 85.7716 42.4342 85.7098 42.5406L85.6455 42.6544C85.6306 42.6791 85.6108 42.7064 85.5911 42.7336L85.5713 42.7608C85.502 42.8696 85.4303 42.976 85.3536 43.0774C85.3462 43.0922 85.3338 43.1095 85.3214 43.1269C85.2942 43.1615 85.2695 43.1936 85.2423 43.2258L85.2077 43.2654C85.1483 43.3396 85.0939 43.4064 85.0345 43.4756C85.0147 43.5004 85.0023 43.5177 84.9875 43.5325C84.9578 43.5647 84.9257 43.5968 84.896 43.629L84.8317 43.6958C84.7847 43.7453 84.7377 43.7923 84.6907 43.8392C84.6709 43.8615 84.656 43.8764 84.6412 43.8887C84.6066 43.9209 84.5695 43.953 84.5324 43.9852L84.4458 44.0619C84.4037 44.1015 84.3592 44.1386 84.3147 44.1757C84.2974 44.1905 84.2825 44.2053 84.2677 44.2177C84.2306 44.2474 84.1861 44.2796 84.1415 44.3117L84.0451 44.3834C84.0005 44.4181 83.956 44.4502 83.9115 44.4824L83.8793 44.5071C83.8348 44.5368 83.7928 44.564 83.7507 44.5888L83.6493 44.6531C83.5899 44.6902 83.5306 44.7298 83.4712 44.7644C83.4613 44.7718 83.4489 44.7792 83.4341 44.7866C83.397 44.8089 83.3624 44.8262 83.3277 44.8435L83.2857 44.8633C83.1843 44.9177 83.0828 44.9722 82.9765 45.0192C82.9517 45.0315 82.932 45.0414 82.9122 45.0513C82.8009 45.1008 82.6871 45.1478 82.5733 45.1923C82.5683 45.1948 82.5461 45.2022 82.5386 45.2047C82.4422 45.2418 82.3432 45.2764 82.2468 45.3061C82.2171 45.316 82.1874 45.3234 82.1577 45.3308L82.0044 45.3729C81.8263 45.4199 81.6778 45.4545 81.5368 45.4817C81.5022 45.4867 81.4725 45.4891 81.4428 45.4891ZM77.7201 39.0825L81.6506 44.4428C81.6803 44.4354 81.71 44.428 81.7422 44.4181L81.9425 44.3612C82.0241 44.334 82.1058 44.3068 82.1874 44.2771C82.1923 44.2746 82.2146 44.2672 82.2196 44.2672C82.3135 44.2326 82.4075 44.193 82.5015 44.1509C82.5189 44.141 82.5362 44.1311 82.556 44.1237C82.6425 44.0841 82.7291 44.0371 82.8132 43.9926C82.838 43.9802 82.8652 43.9654 82.8899 43.953C82.9047 43.9456 82.9221 43.9382 82.9369 43.9283L82.9666 43.9085C83.0185 43.8788 83.063 43.8492 83.11 43.8195L83.2337 43.7428C83.2585 43.7279 83.2857 43.7106 83.3104 43.6933L83.3426 43.671C83.3772 43.6463 83.4093 43.6216 83.4415 43.5968L83.5578 43.5103C83.5874 43.4905 83.6171 43.4682 83.6443 43.446C83.6592 43.4336 83.6716 43.4212 83.6839 43.4113C83.7161 43.3841 83.7482 43.3544 83.7829 43.3248L83.8868 43.2332C83.909 43.2134 83.9338 43.1937 83.956 43.1714C83.9733 43.1541 83.9857 43.1392 84.0005 43.1269C84.0376 43.0922 84.0748 43.0527 84.1119 43.0131L84.1935 42.929C84.2133 42.9092 84.2306 42.8919 84.2504 42.8721C84.2652 42.8523 84.2776 42.8374 84.29 42.8226C84.337 42.7682 84.3839 42.7113 84.4285 42.6544C84.4483 42.6297 84.468 42.6074 84.4854 42.5852C84.5002 42.5678 84.515 42.553 84.5274 42.5357C84.5348 42.5258 84.5423 42.5109 84.5546 42.4961C84.6214 42.4046 84.6808 42.3155 84.7377 42.2265C84.7525 42.2042 84.7674 42.1819 84.7822 42.1597L84.8539 42.041C84.9059 41.9519 84.9553 41.8604 84.9999 41.7689L85.0642 41.6378C85.1112 41.5339 85.1483 41.4473 85.1804 41.3582L85.2002 41.3014C85.2398 41.195 85.2744 41.0837 85.3066 40.9724C85.3091 40.9674 85.3115 40.9526 85.314 40.9476C85.3412 40.8437 85.3684 40.7275 85.3907 40.5964L85.4031 40.5271C85.4204 40.4133 85.4352 40.2971 85.4426 40.1833L85.4451 40.1487C85.4451 40.1487 85.4451 40.1239 85.4476 40.1215C85.455 39.9829 85.455 39.8667 85.4501 39.7578C85.4451 39.6688 85.4402 39.5822 85.4278 39.4956L85.4154 39.4091C85.4055 39.3447 85.3981 39.2928 85.3882 39.2433C85.3882 39.2384 85.3857 39.2235 85.3833 39.2186L85.3585 39.1172C85.3511 39.0801 85.3412 39.0405 85.3313 39.0034L85.2868 38.8624C85.2769 38.8327 85.267 38.8005 85.2571 38.7709C85.2571 38.7684 85.2547 38.7634 85.2547 38.761C85.2497 38.7486 85.2423 38.7313 85.2398 38.7239C85.2002 38.62 85.1557 38.5161 85.1062 38.4171C85.1038 38.4097 85.0988 38.3998 85.0939 38.3899C85.0914 38.3875 85.0889 38.3825 85.0865 38.3776C85.0444 38.2959 84.9925 38.2069 84.9306 38.1129C84.9257 38.103 84.9108 38.0783 84.9034 38.0684C84.8886 38.0486 84.8638 38.0115 84.8366 37.9744L81.8782 33.9424C81.8782 33.9498 81.8782 33.9573 81.8782 33.9647L81.8757 34.0389C81.8658 34.1824 81.8485 34.3283 81.8263 34.4767L81.8114 34.5583C81.7842 34.7167 81.752 34.8601 81.7149 34.9937C81.7125 34.9987 81.7075 35.016 81.7075 35.0209C81.6704 35.1545 81.6259 35.2905 81.5739 35.434L81.5517 35.4983C81.5022 35.6269 81.4478 35.7556 81.3835 35.8941C81.3662 35.9287 81.3488 35.9658 81.3315 36.0029C81.2771 36.1118 81.2178 36.2206 81.1559 36.3294C81.1336 36.369 81.1238 36.3888 81.1114 36.4086C81.0916 36.4407 81.0693 36.4754 81.0446 36.51L81.0149 36.5545C80.9457 36.6609 80.8764 36.7673 80.7997 36.8711C80.7601 36.9231 80.7181 36.975 80.676 37.0295L80.6513 37.0591L80.6365 37.0789C80.5845 37.1433 80.5326 37.2076 80.4782 37.2694C80.4237 37.3312 80.3644 37.3931 80.3075 37.4549L80.2827 37.4797C80.2333 37.5316 80.1838 37.5835 80.1343 37.633C80.0675 37.6973 79.9983 37.7592 79.929 37.821L79.8894 37.8556C79.8474 37.8927 79.8053 37.9323 79.7608 37.9669C79.6965 38.0189 79.6322 38.0684 79.5679 38.1178L79.4937 38.1747C79.4491 38.2094 79.4021 38.244 79.3551 38.2761C79.3007 38.3133 79.2463 38.3479 79.1894 38.385L79.0979 38.4443C79.036 38.4839 78.9767 38.521 78.9148 38.5581C78.8703 38.5829 78.8258 38.6076 78.7788 38.6323L78.7268 38.6596C78.6254 38.714 78.524 38.7684 78.4176 38.8154C78.2865 38.8772 78.153 38.9366 78.0144 38.9885C78.0095 38.991 77.9872 38.9984 77.9823 39.0009C77.8932 39.0256 77.8067 39.0553 77.7201 39.0825Z" fill="#F4F7FB"/>
<path d="M83.3294 45.6919C83.2725 45.6919 83.2131 45.682 83.1587 45.6622C82.5923 45.4544 81.9491 45.4074 81.2936 45.5286C81.1056 45.5633 80.9176 45.4866 80.8063 45.3357L76.2524 39.127C76.151 38.9885 76.1288 38.8104 76.1906 38.6521C76.2524 38.4938 76.3934 38.38 76.5616 38.3478C77.3952 38.1945 78.2189 38.2563 78.9511 38.5284C79.0427 38.563 79.1218 38.6224 79.1787 38.6991L83.7326 44.9078C83.8612 45.0834 83.8612 45.3233 83.7276 45.499C83.6287 45.6202 83.4803 45.6919 83.3294 45.6919ZM77.5684 39.2531L81.4222 44.5071C81.6795 44.4749 81.9343 44.465 82.1841 44.4749L78.4663 39.404C78.1818 39.315 77.8825 39.263 77.5684 39.2531Z" fill="#F4F7FB"/>
<mask id="mask1_6758_21108" style="mask-type:luminance" maskUnits="userSpaceOnUse" x="76" y="38" width="8" height="8">
<path d="M83.3294 45.6919C83.2725 45.6919 83.2131 45.682 83.1587 45.6622C82.5923 45.4544 81.9491 45.4074 81.2936 45.5286C81.1056 45.5633 80.9176 45.4866 80.8063 45.3357L76.2524 39.127C76.151 38.9885 76.1288 38.8104 76.1906 38.6521C76.2524 38.4938 76.3934 38.38 76.5616 38.3478C77.3952 38.1945 78.2189 38.2563 78.9511 38.5284C79.0427 38.563 79.1218 38.6224 79.1787 38.6991L83.7326 44.9078C83.8612 45.0834 83.8612 45.3233 83.7276 45.499C83.6287 45.6202 83.4803 45.6919 83.3294 45.6919ZM77.5684 39.2531L81.4222 44.5071C81.6795 44.4749 81.9343 44.465 82.1841 44.4749L78.4663 39.404C78.1818 39.315 77.8825 39.263 77.5684 39.2531Z" fill="white"/>
</mask>
<g mask="url(#mask1_6758_21108)">
<path d="M80.2881 40.108L84.842 46.3167C84.2236 45.4708 83.1921 44.9587 81.9974 44.9587C81.7377 44.9587 81.4705 44.9835 81.1984 45.0329L76.6445 38.8242C76.9166 38.7747 77.1838 38.75 77.4435 38.75C78.6382 38.75 79.6697 39.262 80.2881 40.108Z" fill="#DDE1E6"/>
<path d="M84.8432 46.8062C84.6899 46.8062 84.5414 46.7369 84.445 46.6033V46.6008C83.7845 45.7005 82.5749 45.2775 81.2936 45.5125C81.1056 45.5471 80.9176 45.4704 80.8063 45.3195L76.2524 39.1108C76.151 38.9723 76.1288 38.7942 76.1906 38.6359C76.2524 38.4776 76.3934 38.3638 76.5616 38.3316C76.8585 38.2772 77.1578 38.25 77.4497 38.25C78.7829 38.25 79.9653 38.8189 80.6925 39.8108L85.2464 46.0196C85.4072 46.2397 85.3602 46.5489 85.1401 46.7122C85.0461 46.7765 84.9446 46.8062 84.8432 46.8062ZM81.9986 44.4587C82.3226 44.4587 82.6393 44.4933 82.9435 44.5577L79.8886 40.3921C79.3716 39.6872 78.5331 39.2716 77.5684 39.2394L81.4222 44.4933C81.6152 44.4711 81.8081 44.4587 81.9986 44.4587Z" fill="#F4F7FB"/>
</g>
<path d="M76.9895 46.4844L81.5434 52.6956L81.1476 52.7698L76.5938 46.5586L76.9895 46.4844Z" fill="#F4F7FB"/>
<path d="M81.1499 53.2577C80.994 53.2577 80.8456 53.1835 80.7516 53.0549L76.1978 46.8462C76.0963 46.7101 76.0741 46.5295 76.1359 46.3712C76.1978 46.2129 76.3387 46.0991 76.5045 46.067L76.9027 45.9928C77.0907 45.9581 77.2812 46.0323 77.3925 46.1857L81.9464 52.3944C82.0478 52.5305 82.0701 52.711 82.0082 52.8693C81.9464 53.0277 81.8054 53.1414 81.6397 53.1736L81.2414 53.2478C81.2092 53.2552 81.1796 53.2577 81.1499 53.2577Z" fill="#F4F7FB"/>
<path d="M85.02 50.073C85.0423 50.0285 85.0646 49.984 85.0868 49.937C85.0893 49.932 85.0918 49.9246 85.0967 49.9196C85.1017 49.9097 85.1041 49.8999 85.1091 49.8875C85.1635 49.7638 85.213 49.6401 85.255 49.514C85.26 49.4991 85.2649 49.4843 85.2699 49.4694C85.3119 49.3383 85.3465 49.2073 85.3762 49.0737C85.3812 49.0489 85.3861 49.0217 85.3911 48.997C85.4158 48.8659 85.4356 48.7323 85.448 48.5987C85.4504 48.5765 85.4504 48.5542 85.4529 48.5295C85.4628 48.3885 85.4677 48.2475 85.4603 48.1065C85.4554 48.0199 85.448 47.9334 85.4381 47.8492C85.4356 47.8196 85.4282 47.7924 85.4257 47.7651C85.4183 47.7082 85.4109 47.6538 85.3985 47.5994C85.3985 47.5969 85.3985 47.5945 85.396 47.592C85.3911 47.5623 85.3812 47.5351 85.3762 47.5054C85.3663 47.4559 85.354 47.4065 85.3416 47.3595C85.3317 47.3248 85.3218 47.2927 85.3119 47.2605C85.2971 47.216 85.2847 47.1715 85.2699 47.127C85.2674 47.122 85.2674 47.1171 85.2649 47.1096C85.2624 47.0998 85.2575 47.0923 85.2525 47.0824C85.213 46.9736 85.166 46.8697 85.1165 46.7683C85.1116 46.7609 85.1091 46.751 85.1041 46.7411C85.1017 46.7361 85.0992 46.7337 85.0967 46.7287C85.0472 46.6347 84.9953 46.5457 84.9384 46.4566C84.9335 46.4467 84.9285 46.4368 84.9236 46.4294C84.8988 46.3923 84.8716 46.3552 84.8444 46.3181L80.2905 40.1094C80.3227 40.1539 80.3548 40.2009 80.3845 40.2479C80.4414 40.3345 80.4958 40.426 80.5428 40.52C80.5503 40.5324 80.5552 40.5447 80.5601 40.5571C80.6096 40.6585 80.6566 40.7624 80.6962 40.8688C80.7011 40.8836 80.7086 40.8985 80.7135 40.9133C80.7283 40.9578 80.7432 41.0024 80.7556 41.0469C80.7655 41.079 80.7778 41.1137 80.7852 41.1458C80.7976 41.1928 80.8075 41.2423 80.8199 41.2918C80.8273 41.3239 80.8347 41.3561 80.8421 41.3882C80.852 41.4427 80.8595 41.4995 80.8693 41.554C80.8743 41.5812 80.8792 41.6108 80.8817 41.6381C80.8916 41.7222 80.899 41.8087 80.904 41.8953C80.9089 42.0363 80.9065 42.1773 80.8966 42.3183C80.8941 42.3406 80.8941 42.3628 80.8916 42.3876C80.8792 42.5211 80.8595 42.6547 80.8347 42.7858C80.8298 42.8105 80.8248 42.8377 80.8199 42.8625C80.7902 42.9961 80.7556 43.1272 80.7135 43.2583C80.7086 43.2731 80.7036 43.2879 80.6987 43.3028C80.6566 43.4289 80.6071 43.5551 80.5527 43.6763C80.5453 43.6936 80.5404 43.7084 80.5329 43.7258C80.5132 43.7703 80.4884 43.8148 80.4661 43.8618C80.4464 43.8989 80.429 43.9385 80.4093 43.9756C80.3845 44.0201 80.3598 44.0647 80.3326 44.1092C80.3128 44.1438 80.293 44.1809 80.2707 44.2155C80.199 44.3318 80.1223 44.4431 80.0407 44.5519C80.0234 44.5742 80.0061 44.599 79.9887 44.6212C79.9145 44.7202 79.8354 44.8142 79.7513 44.9081C79.7439 44.9156 79.7364 44.923 79.7315 44.9304C79.6573 45.012 79.5806 45.0887 79.5039 45.1654C79.4792 45.1877 79.4544 45.2124 79.4297 45.2347C79.3605 45.299 79.2887 45.3608 79.217 45.4202C79.1972 45.4375 79.1774 45.4523 79.1576 45.4697C79.076 45.534 78.9944 45.5983 78.9103 45.6576C78.7742 45.7541 78.6307 45.8432 78.4848 45.9248C78.4477 45.9471 78.4057 45.9644 78.3661 45.9842C78.2622 46.041 78.1558 46.093 78.047 46.1425C77.9406 46.1895 77.8318 46.2266 77.7229 46.2661C77.6562 46.2909 77.5918 46.3181 77.5226 46.3379C77.5053 46.3428 77.4855 46.3478 77.4682 46.3527C77.3098 46.3997 77.1515 46.4393 76.9883 46.469L81.5422 52.6777C81.7054 52.648 81.8662 52.6084 82.022 52.5614C82.0394 52.5565 82.0591 52.5515 82.0765 52.5466C82.0888 52.5416 82.1012 52.5392 82.1136 52.5367C82.1705 52.5194 82.2224 52.4947 82.2768 52.4749C82.3857 52.4353 82.4945 52.3982 82.6009 52.3512C82.6157 52.3462 82.6305 52.3413 82.6429 52.3339C82.7369 52.2918 82.8284 52.2423 82.92 52.1929C82.9595 52.1731 82.9991 52.1533 83.0387 52.1335C83.0436 52.131 83.0511 52.1286 83.056 52.1261C83.1772 52.0568 83.2959 51.9826 83.4097 51.9035C83.427 51.8911 83.4468 51.8787 83.4641 51.8664C83.5482 51.807 83.6323 51.7427 83.7115 51.6784C83.7164 51.6734 83.7239 51.6709 83.7288 51.666C83.7437 51.6536 83.756 51.6413 83.7709 51.6289C83.8426 51.5695 83.9143 51.5052 83.9836 51.4434C83.996 51.431 84.0108 51.4211 84.0256 51.4063C84.038 51.3964 84.0479 51.384 84.0578 51.3716C84.137 51.295 84.2136 51.2183 84.2854 51.1366C84.2903 51.1317 84.2977 51.1243 84.3027 51.1193C84.3027 51.1193 84.3052 51.1169 84.3052 51.1144C84.3893 51.0229 84.4659 50.9264 84.5402 50.8274C84.55 50.8151 84.5599 50.8052 84.5674 50.7953C84.5773 50.7829 84.5822 50.7706 84.5921 50.7582C84.6737 50.6494 84.7504 50.5356 84.8221 50.4218C84.8246 50.4193 84.8271 50.4168 84.8271 50.4144C84.8469 50.3822 84.8642 50.35 84.8815 50.3179C84.9062 50.2734 84.9335 50.2288 84.9582 50.1843C84.9829 50.1497 85.0002 50.1101 85.02 50.073Z" fill="#70798E"/>
<path d="M81.5444 53.1764C81.3886 53.1764 81.2402 53.1022 81.1462 52.9735L76.5923 46.7648C76.4909 46.6263 76.4686 46.4482 76.5304 46.2899C76.5923 46.1316 76.7333 46.0178 76.9015 45.9856C77.0351 45.9609 77.1761 45.9263 77.3294 45.8817C77.3319 45.8817 77.3591 45.8743 77.3616 45.8719C77.411 45.857 77.4432 45.8446 77.4754 45.8323L77.557 45.8026C77.6658 45.763 77.7574 45.7309 77.8489 45.6913C77.9478 45.6467 78.0418 45.5997 78.1358 45.5503L78.1977 45.5181C78.2125 45.5107 78.2273 45.5033 78.2397 45.4959C78.3757 45.4192 78.5044 45.3376 78.6231 45.2535C78.6998 45.199 78.774 45.1421 78.8482 45.0828L78.9026 45.0358C78.9645 44.9838 79.0288 44.9269 79.0931 44.87L79.1574 44.8082C79.2291 44.7389 79.2984 44.6697 79.3627 44.5955C79.3677 44.5905 79.38 44.5757 79.385 44.5732C79.4567 44.4941 79.526 44.4075 79.5928 44.3184L79.6373 44.2566C79.7189 44.1453 79.7857 44.0463 79.8451 43.9523L79.9217 43.8188C79.9366 43.7916 79.9539 43.7643 79.9663 43.7396C79.9786 43.7198 79.9885 43.6976 79.9984 43.6778L80.038 43.5986C80.0504 43.5714 80.0652 43.5467 80.0776 43.5195L80.0949 43.4774C80.1419 43.3686 80.1864 43.2573 80.2235 43.146C80.2235 43.1435 80.2334 43.1163 80.2359 43.1113C80.273 42.9975 80.3027 42.8838 80.3299 42.7576L80.3447 42.6908C80.367 42.5745 80.3843 42.4583 80.3942 42.3445L80.3991 42.2827C80.409 42.1466 80.4115 42.0279 80.4066 41.9166C80.4041 41.8424 80.3967 41.7682 80.3892 41.694L80.3769 41.6222C80.3695 41.5653 80.362 41.5208 80.3546 41.4812L80.3274 41.3674C80.32 41.3378 80.3126 41.3056 80.3051 41.2759L80.2779 41.1918C80.2631 41.1399 80.2532 41.1102 80.2433 41.0805C80.2408 41.0755 80.2285 41.0434 80.226 41.0385C80.1938 40.9519 80.1543 40.8628 80.1122 40.7787C80.1097 40.7738 80.0974 40.7515 80.0974 40.7466C80.0578 40.6674 80.0108 40.5932 79.9638 40.519C79.9341 40.4745 79.9094 40.4374 79.8846 40.4027C79.7239 40.1826 79.7709 39.8734 79.991 39.7126C80.2112 39.5518 80.5203 39.5988 80.6811 39.819L85.235 46.0277C85.2672 46.0697 85.2969 46.1143 85.3265 46.1588C85.334 46.1687 85.3439 46.186 85.3513 46.2008C85.4181 46.3023 85.4725 46.3963 85.5219 46.4903C85.5244 46.4952 85.5269 46.4977 85.5269 46.5001C85.5417 46.5298 85.5492 46.5471 85.5566 46.562C85.611 46.6708 85.6605 46.7821 85.7025 46.8959C85.7124 46.9157 85.7198 46.933 85.7248 46.9528C85.7273 46.9602 85.7297 46.9701 85.7322 46.9751C85.7421 47.0048 85.7569 47.0517 85.7718 47.0963L85.7866 47.1408C85.7965 47.168 85.8039 47.1977 85.8114 47.2249C85.8262 47.2768 85.8361 47.3288 85.8485 47.3807L85.8559 47.4104C85.8633 47.4376 85.8707 47.4673 85.8757 47.4945C85.8781 47.5044 85.8781 47.5143 85.8806 47.5242C85.888 47.5564 85.8955 47.6133 85.9029 47.6701L85.9103 47.7147C85.9153 47.7394 85.9177 47.7642 85.9202 47.7889C85.9326 47.8854 85.94 47.9843 85.9449 48.0832C85.9524 48.2292 85.9474 48.385 85.935 48.5631L85.9301 48.6447C85.9177 48.7882 85.8955 48.9391 85.8658 49.0925L85.8534 49.1543L85.8485 49.179C85.8138 49.3398 85.7743 49.4858 85.7297 49.6218L85.7149 49.6639C85.6654 49.8123 85.611 49.9508 85.5492 50.0893C85.5492 50.0893 85.5442 50.1066 85.5368 50.1215C85.5343 50.1289 85.5244 50.1462 85.5219 50.1536C85.5096 50.1833 85.4898 50.2229 85.4675 50.2625L85.4354 50.3243C85.4205 50.3565 85.4032 50.3886 85.3884 50.4183C85.3661 50.4604 85.3438 50.4999 85.3191 50.5395L85.2894 50.5915C85.2746 50.6187 85.2598 50.6434 85.2449 50.6706C85.24 50.678 85.235 50.6855 85.2301 50.6929C85.1658 50.7992 85.0817 50.9204 84.9827 51.054C84.9778 51.0639 84.9654 51.0788 84.953 51.0961C84.9481 51.1035 84.9258 51.1307 84.9209 51.1381C84.8417 51.2395 84.7576 51.3459 84.6661 51.4473C84.6537 51.4622 84.6512 51.4646 84.6414 51.4745C84.6389 51.477 84.6364 51.4795 84.6339 51.482C84.5622 51.5611 84.4781 51.6477 84.3915 51.7293C84.3816 51.7417 84.3693 51.754 84.3544 51.7664C84.342 51.7788 84.3272 51.7912 84.3124 51.8035C84.2332 51.8753 84.1565 51.9445 84.0774 52.0088C84.0601 52.0237 84.0477 52.036 84.0329 52.0484C84.0254 52.0534 84.0106 52.0657 84.0032 52.0707C83.924 52.135 83.8325 52.2042 83.741 52.2686L83.6841 52.3081C83.5554 52.3947 83.4268 52.4788 83.2932 52.553C83.2858 52.558 83.2735 52.5629 83.2636 52.5679C83.2364 52.5827 83.2091 52.5975 83.1819 52.6099L83.1003 52.652C83.0137 52.6965 82.9296 52.7435 82.8406 52.7831C82.8282 52.788 82.7911 52.8029 82.7763 52.8078C82.6823 52.8498 82.5685 52.8919 82.4522 52.9315L82.3879 52.9562C82.3434 52.9735 82.3013 52.9908 82.2543 53.0057C82.2469 53.0082 82.2222 53.0156 82.2148 53.018L82.1702 53.0304C81.9674 53.0898 81.7918 53.1318 81.6236 53.164C81.6063 53.1739 81.5741 53.1764 81.5444 53.1764ZM77.8167 46.7599L81.7522 52.1276C81.7943 52.1152 81.8388 52.1028 81.8858 52.0905L81.9204 52.0806C81.9278 52.0781 81.9625 52.0682 81.9699 52.0657C81.9872 52.0608 82.007 52.0509 82.0243 52.0435C82.054 52.0311 82.0837 52.0187 82.1133 52.0088C82.2222 51.9693 82.3137 51.9371 82.4028 51.8975C82.4151 51.8926 82.4473 51.8802 82.4596 51.8752C82.5116 51.8505 82.5784 51.8159 82.6452 51.7813L82.7565 51.7244C82.7713 51.7169 82.7837 51.712 82.7985 51.7021C82.806 51.6971 82.8158 51.6922 82.8257 51.6873C82.9346 51.6254 83.036 51.5611 83.1349 51.4918L83.1819 51.4597C83.2586 51.4053 83.3328 51.3484 83.407 51.289C83.412 51.2841 83.4268 51.2742 83.4342 51.2692L83.4615 51.2445C83.5258 51.1901 83.5901 51.1332 83.6519 51.0763L83.6865 51.0441C83.6915 51.0392 83.7088 51.0194 83.7138 51.0169C83.788 50.9452 83.8572 50.8759 83.9215 50.8017C83.9265 50.7968 83.9364 50.7869 83.9413 50.7795C84.0131 50.7003 84.0823 50.6137 84.1516 50.5247C84.1565 50.5173 84.1763 50.495 84.1813 50.4876C84.1813 50.4876 84.1862 50.4777 84.1986 50.4628C84.2802 50.3515 84.3495 50.2526 84.4064 50.1586C84.4088 50.1536 84.4113 50.1487 84.4163 50.1437L84.4781 50.0349C84.4954 50.0052 84.5127 49.9731 84.53 49.9434C84.5399 49.9236 84.5498 49.9038 84.5597 49.884L84.5795 49.842L84.5968 49.8098C84.6117 49.7801 84.6265 49.7529 84.6389 49.7232C84.6389 49.7207 84.6414 49.7158 84.6438 49.7133C84.6488 49.7034 84.6513 49.6911 84.6537 49.6861C84.7057 49.5699 84.7477 49.4586 84.7848 49.3497C84.7848 49.3448 84.7947 49.3225 84.7947 49.32C84.8318 49.2063 84.8615 49.0925 84.8912 48.9614L84.9036 48.8971C84.9283 48.7758 84.9431 48.6571 84.953 48.5458L84.958 48.484C84.9679 48.3454 84.9703 48.2292 84.9654 48.1179C84.9629 48.0437 84.9555 47.9695 84.9481 47.8953L84.9382 47.826L84.9357 47.8013C84.9308 47.7617 84.9258 47.7221 84.9159 47.6825C84.9159 47.6776 84.9134 47.6751 84.9134 47.6701L84.8986 47.6058C84.8862 47.5489 84.8788 47.5118 84.8689 47.4772L84.8442 47.3931C84.8293 47.3436 84.8195 47.3115 84.8071 47.2793C84.8071 47.2769 84.8046 47.2744 84.8046 47.2719C84.7997 47.2595 84.7947 47.2472 84.7922 47.2397C84.7601 47.1532 84.7205 47.0641 84.6785 46.98C84.676 46.9726 84.671 46.9627 84.6661 46.9528C84.6191 46.8638 84.5746 46.7896 84.53 46.7203C84.5251 46.7129 84.5177 46.698 84.5103 46.6881C84.4905 46.6585 84.4707 46.6312 84.4509 46.604L81.3836 42.436C81.3688 42.5845 81.349 42.7329 81.3193 42.8813L81.307 42.9406C81.307 42.9431 81.302 42.9678 81.302 42.9678C81.2674 43.1262 81.2278 43.2721 81.1833 43.4106C81.1808 43.4156 81.1734 43.4428 81.1709 43.4477C81.119 43.6011 81.0645 43.7396 81.0027 43.8781L80.9804 43.9301C80.9607 43.9697 80.9433 44.0068 80.926 44.0439L80.8889 44.1181C80.8741 44.1502 80.8592 44.1799 80.8419 44.2121C80.8221 44.2492 80.7999 44.2863 80.7801 44.3234L80.7405 44.3902C80.7232 44.4174 80.7083 44.4471 80.691 44.4743C80.6168 44.593 80.5352 44.7142 80.4362 44.8478L80.3794 44.922C80.2953 45.0308 80.2087 45.1372 80.1172 45.2386C80.1122 45.2436 80.0974 45.2609 80.0924 45.2658C80.0157 45.3524 79.9316 45.4365 79.8451 45.5206L79.7659 45.5973C79.6892 45.669 79.6125 45.7358 79.5334 45.8026L79.4666 45.8595C79.38 45.9287 79.2885 45.998 79.1945 46.0648C79.051 46.1662 78.8927 46.2676 78.727 46.3591C78.6973 46.3765 78.6652 46.3913 78.633 46.4086L78.5984 46.4259C78.4846 46.4853 78.3683 46.5447 78.2471 46.5991C78.1358 46.6486 78.0196 46.6906 77.9033 46.7327L77.8316 46.7599C77.8266 46.7574 77.8217 46.7599 77.8167 46.7599ZM83.924 50.8042C83.9215 50.8067 83.9215 50.8091 83.9191 50.8091C83.9215 50.8067 83.9215 50.8042 83.924 50.8042ZM83.9463 50.7795C83.9463 50.7795 83.9438 50.7819 83.9413 50.7844C83.9438 50.7819 83.9438 50.7795 83.9463 50.7795Z" fill="#F4F7FB"/>
<path d="M84.3999 55.1079C84.4024 55.2192 84.3999 55.3305 84.39 55.4393C84.3875 55.4764 84.3801 55.511 84.3776 55.5482C84.3677 55.6224 84.3603 55.6941 84.3455 55.7683C84.3405 55.8104 84.3282 55.8499 84.3183 55.892C84.3034 55.9588 84.2861 56.028 84.2663 56.0948C84.2515 56.1369 84.2391 56.1764 84.2243 56.2185C84.202 56.2853 84.1748 56.3545 84.1476 56.4189C84.1352 56.4461 84.1278 56.4708 84.1154 56.4955C84.113 56.5079 84.1055 56.5153 84.1006 56.5252C84.0486 56.639 83.9893 56.7503 83.925 56.8592C83.9225 56.8641 83.92 56.8691 83.9151 56.874C83.9002 56.8987 83.8854 56.9185 83.8681 56.9408C83.826 57.0051 83.784 57.0719 83.737 57.1337C83.732 57.1461 83.7246 57.1535 83.7172 57.1659C83.6974 57.1956 83.6702 57.2228 83.6504 57.2475C83.6158 57.292 83.5811 57.3366 83.544 57.3761C83.5317 57.3885 83.5242 57.4009 83.5144 57.4108C83.4871 57.438 83.4575 57.4627 83.4327 57.4924C83.4006 57.527 83.3684 57.5641 83.3338 57.5988C83.3214 57.6087 83.314 57.6186 83.3041 57.6284C83.2719 57.6581 83.2398 57.6853 83.2076 57.7125C83.173 57.7422 83.1408 57.7719 83.1037 57.8016C83.0938 57.8115 83.0864 57.8189 83.0765 57.8239C83.0419 57.8535 83.0023 57.8808 82.9677 57.9055C82.9306 57.9352 82.8935 57.9624 82.8564 57.9871C82.8465 57.9921 82.8415 57.9995 82.8316 58.0044C82.797 58.0292 82.7574 58.0514 82.7228 58.0712C82.6758 58.1009 82.6313 58.1331 82.5843 58.1603C82.5744 58.1652 82.567 58.1726 82.5595 58.1751C82.5299 58.1924 82.4977 58.2048 82.468 58.2221C82.4062 58.2543 82.3443 58.2864 82.28 58.3161C82.2677 58.321 82.2528 58.3309 82.2429 58.3359C82.2231 58.3458 82.1984 58.3532 82.1761 58.3631C82.0871 58.4002 81.998 58.4373 81.9016 58.467C81.8793 58.4769 81.857 58.4843 81.8373 58.4942C81.8224 58.4967 81.8076 58.4992 81.7927 58.5066C81.6641 58.5437 81.538 58.5758 81.4044 58.6006L80.7514 58.7218L73.2341 60.1095L53.0125 63.8421C52.8814 63.8668 52.7478 63.8767 52.6192 63.8767C52.5252 63.8767 52.4337 63.8718 52.3422 63.8594L47.3208 63.1742C47.2293 63.1619 47.1377 63.1569 47.0437 63.1569C46.9151 63.1569 46.7815 63.1693 46.6504 63.1916L33.2015 65.675C33.0655 65.6973 32.9344 65.7097 32.8058 65.7097C32.2121 65.7097 31.6951 65.4549 31.3859 65.0344L26.832 58.8257C27.1412 59.2462 27.6582 59.501 28.2519 59.501C28.3805 59.501 28.5141 59.4886 28.6476 59.4663L42.0966 56.9828C42.2277 56.9581 42.3612 56.9482 42.4923 56.9482C42.5839 56.9482 42.6778 56.9532 42.7669 56.9655L47.7883 57.6507C47.8798 57.6631 47.9713 57.668 48.0653 57.668C48.194 57.668 48.3275 57.6556 48.4586 57.6334L68.6802 53.9007L76.1999 52.5131L76.8505 52.3918C76.9816 52.3671 77.1127 52.335 77.2389 52.2979C77.2735 52.2855 77.3131 52.2706 77.3477 52.2608C77.4417 52.2311 77.5332 52.1964 77.6223 52.1569C77.6569 52.142 77.694 52.1272 77.7286 52.1099C77.7929 52.0802 77.8548 52.048 77.9166 52.0159L78.0304 51.954C78.0774 51.9268 78.1219 51.8947 78.1689 51.865C78.2134 51.8378 78.258 51.8081 78.3 51.7809C78.3371 51.7537 78.3742 51.7289 78.4113 51.6992C78.4559 51.6646 78.5029 51.6325 78.5474 51.5929C78.582 51.5632 78.6142 51.5335 78.6513 51.5038C78.6958 51.4667 78.7354 51.4271 78.7774 51.39C78.8121 51.3554 78.8442 51.3208 78.8764 51.2837C78.9135 51.2466 78.953 51.2045 78.9877 51.165C79.0223 51.1229 79.0594 51.0808 79.094 51.0363C79.1237 50.9992 79.1559 50.9596 79.1831 50.9225C79.2301 50.8582 79.2746 50.7939 79.3191 50.7296C79.3365 50.6999 79.3538 50.6777 79.3711 50.648C79.4354 50.5391 79.4948 50.4278 79.5467 50.314C79.564 50.2794 79.5789 50.2448 79.5937 50.2077C79.6209 50.1409 79.6457 50.0766 79.6704 50.0048C79.6852 49.9677 79.7001 49.9257 79.7124 49.8836C79.7322 49.8169 79.7495 49.7476 79.7644 49.6808C79.7743 49.6387 79.7842 49.5992 79.7916 49.5571C79.8064 49.4829 79.8163 49.4112 79.8238 49.337C79.8287 49.2999 79.8361 49.2628 79.8361 49.2281C79.846 49.1193 79.8485 49.008 79.846 48.8967C79.8411 48.7656 79.8213 48.6345 79.799 48.5083C79.7891 48.4663 79.7743 48.4292 79.7669 48.3896C79.7471 48.308 79.7298 48.2239 79.7001 48.1447C79.663 48.0383 79.6184 47.9369 79.569 47.838C79.5591 47.8207 79.5492 47.8033 79.5368 47.786C79.4898 47.697 79.4379 47.6104 79.3785 47.5312L83.9324 53.74C83.9522 53.7696 83.9695 53.7969 83.9918 53.8241C84.0289 53.881 84.0585 53.9379 84.0907 53.9947C84.1031 54.0121 84.1154 54.0294 84.1229 54.0467C84.1253 54.0516 84.1278 54.0566 84.1278 54.0615C84.1748 54.1506 84.2168 54.2446 84.2515 54.341C84.2515 54.3435 84.254 54.3509 84.254 54.3534C84.2812 54.4326 84.3009 54.5142 84.3207 54.5983C84.3306 54.6354 84.3455 54.6725 84.3529 54.7096C84.3529 54.7121 84.3529 54.7146 84.3529 54.7146C84.3776 54.8481 84.3925 54.9768 84.3999 55.1079Z" fill="#70798E"/>
<path d="M32.8111 66.2C32.0641 66.2 31.4012 65.8809 30.9931 65.3219L26.4392 59.1132C26.4392 59.1132 26.4392 59.1132 26.4392 59.1107C26.2784 58.8905 26.3254 58.5813 26.5455 58.4181C26.7657 58.2573 27.0749 58.3043 27.2381 58.5244C27.5102 58.8955 28.0124 59.0686 28.5714 58.9697L42.0154 56.4862C42.2949 56.4367 42.5818 56.4293 42.8415 56.4639L47.8654 57.1491C48.0262 57.1689 48.2043 57.1664 48.3824 57.1343L76.7693 51.8952C76.8806 51.8754 76.987 51.8482 77.1057 51.8136L77.1997 51.779C77.2888 51.7517 77.363 51.7221 77.4347 51.6924C77.4693 51.6775 77.4916 51.6676 77.5163 51.6578C77.5881 51.6231 77.6425 51.5959 77.6969 51.5687L77.8082 51.5093C77.8181 51.5044 77.8354 51.492 77.8527 51.4797L77.9171 51.4376C77.9641 51.4104 78.0012 51.3857 78.0383 51.3609C78.063 51.3436 78.0927 51.3214 78.1248 51.2966L78.1793 51.2546C78.1991 51.2397 78.2188 51.2249 78.2362 51.21L78.345 51.116C78.3772 51.0888 78.4143 51.0542 78.4514 51.0196C78.4687 51.0023 78.4959 50.9726 78.5231 50.9429C78.5726 50.891 78.6072 50.8563 78.6369 50.8217C78.6567 50.7994 78.6863 50.7598 78.7185 50.7203L78.7482 50.6832C78.763 50.6658 78.7754 50.6485 78.7878 50.6312C78.8348 50.5669 78.8743 50.51 78.9139 50.4506C78.9238 50.4333 78.9337 50.4185 78.9461 50.4012C79.0129 50.2899 79.0648 50.1909 79.1093 50.0944C79.1291 50.0549 79.139 50.0301 79.1489 50.0054L79.1613 49.9732C79.1786 49.9287 79.1959 49.8842 79.2132 49.8372C79.2305 49.7902 79.2404 49.7655 79.2479 49.7382C79.2676 49.6715 79.2825 49.6195 79.2949 49.5651L79.3072 49.5132C79.3097 49.5008 79.3122 49.4884 79.3146 49.476C79.3146 49.4711 79.3171 49.4538 79.3196 49.4488C79.332 49.3919 79.3369 49.3326 79.3443 49.2757C79.3443 49.2707 79.3493 49.246 79.3493 49.2411L79.3542 49.2089C79.3542 49.1965 79.3542 49.1941 79.3542 49.1792C79.3616 49.0877 79.3641 48.9937 79.3616 48.8997C79.3567 48.8131 79.3443 48.7068 79.3221 48.5905L79.3171 48.5781C79.3072 48.5485 79.2998 48.5188 79.2924 48.4916L79.2825 48.447C79.2726 48.4 79.2602 48.3555 79.2454 48.311C79.2132 48.2195 79.1761 48.1354 79.1365 48.0612C79.1266 48.0463 79.1143 48.029 79.1069 48.0142C79.0698 47.9424 79.0326 47.8806 78.9955 47.8311L78.9857 47.8188C78.8249 47.5986 78.8719 47.2894 79.0895 47.1286C79.3097 46.9654 79.6189 47.0124 79.7797 47.2325C79.7846 47.2375 79.7896 47.2449 79.792 47.2498L84.4003 53.5352C84.4399 53.5946 84.4721 53.649 84.5018 53.7009L84.5191 53.7331C84.5364 53.7578 84.5512 53.785 84.5661 53.8098C84.5735 53.8246 84.5809 53.837 84.5859 53.8518C84.6378 53.9508 84.6823 54.0571 84.7244 54.1685C84.7293 54.1808 84.7343 54.1932 84.7368 54.208C84.764 54.2921 84.7862 54.3787 84.8085 54.4653L84.8184 54.4999C84.8283 54.5321 84.8382 54.5642 84.8456 54.5964C84.8505 54.6137 84.853 54.631 84.8555 54.6483C84.8777 54.7794 84.8951 54.9155 84.905 55.0664C84.905 55.0738 84.905 55.0787 84.905 55.0862C84.9074 55.2148 84.905 55.3459 84.8951 55.4696C84.8926 55.4968 84.8901 55.519 84.8876 55.5438L84.8852 55.5759C84.8852 55.5833 84.8827 55.5982 84.8827 55.6056C84.8728 55.6848 84.8629 55.7639 84.8481 55.8431C84.8431 55.8802 84.8332 55.9173 84.8258 55.9544L84.8184 55.9841C84.8011 56.0682 84.7788 56.1498 84.7541 56.229L84.7318 56.2933C84.7244 56.3205 84.7145 56.3477 84.7046 56.3724C84.6799 56.4441 84.6502 56.5208 84.6205 56.5926L84.148 56.4392L84.4721 56.5678L84.6081 56.6025C84.6056 56.6074 84.6057 56.6148 84.6032 56.6198L84.6057 56.6223C84.5982 56.6371 84.5933 56.6544 84.5859 56.6692C84.5735 56.7014 84.5611 56.7261 84.5488 56.7459C84.4919 56.8647 84.43 56.9834 84.3632 57.0997C84.3608 57.1021 84.3583 57.1095 84.3533 57.1145C84.3509 57.117 84.3484 57.1219 84.3459 57.1244C84.3261 57.1541 84.3088 57.1813 84.2866 57.211C84.247 57.2728 84.2049 57.3346 84.1629 57.3965C84.1505 57.4138 84.1381 57.4336 84.1233 57.4534C84.1085 57.4732 84.0837 57.5028 84.059 57.5325C84.007 57.5968 83.9675 57.6463 83.9279 57.6908C83.9229 57.6958 83.9205 57.7007 83.9155 57.7057C83.9032 57.7205 83.8858 57.7428 83.8735 57.7552L83.8388 57.7898C83.8289 57.7997 83.8166 57.8096 83.8067 57.822C83.7696 57.864 83.7325 57.9036 83.6904 57.9456C83.6855 57.9506 83.6805 57.9555 83.6731 57.9629C83.6682 57.9679 83.6632 57.9728 83.6607 57.9753C83.6558 57.9803 83.6484 57.9877 83.6434 57.9926L83.448 58.1633C83.4332 58.1781 83.4134 58.1955 83.3886 58.2152C83.3614 58.2375 83.3317 58.2598 83.3021 58.282L83.2749 58.3018C83.2353 58.3315 83.1932 58.3637 83.1487 58.3958C83.1487 58.3958 83.1363 58.4057 83.119 58.4156C83.072 58.4453 83.025 58.475 82.983 58.4997L82.9558 58.5195C82.9236 58.5418 82.889 58.564 82.8543 58.5838C82.8445 58.5888 82.8346 58.5962 82.8271 58.6011C82.7999 58.6184 82.7702 58.6333 82.7406 58.6481C82.7331 58.6531 82.7208 58.658 82.7109 58.663C82.6466 58.6976 82.5823 58.7298 82.5155 58.7619C82.4982 58.7718 82.4833 58.7792 82.4709 58.7842C82.4289 58.804 82.3992 58.8139 82.372 58.8238C82.2755 58.8658 82.1766 58.9029 82.0801 58.9326L82.0455 58.9474C82.0158 58.9598 81.9861 58.9697 81.954 58.9771C81.9515 58.9771 81.949 58.9796 81.9441 58.9796C81.7808 59.0291 81.6398 59.0612 81.5013 59.086L53.1144 64.325C52.8324 64.3745 52.5603 64.3819 52.2907 64.3473L47.2643 63.6621C47.1035 63.6423 46.9254 63.6448 46.7473 63.6769L33.3034 66.1604C33.1302 66.1852 32.967 66.2 32.8111 66.2ZM28.3092 59.9888L31.792 64.7356C32.0641 65.1067 32.5613 65.2798 33.1253 65.1809L46.5668 62.6974C46.8488 62.6479 47.1184 62.6405 47.3905 62.6751L52.4168 63.3603C52.5776 63.3801 52.7557 63.3776 52.9338 63.3455L81.3232 58.1064C81.4246 58.0891 81.526 58.0644 81.6472 58.0272C81.6621 58.0223 81.6769 58.0174 81.6893 58.0149C81.7041 58.0099 81.719 58.0025 81.7338 57.9976C81.7412 57.9951 81.7511 57.9926 81.7585 57.9877C81.8352 57.9629 81.9094 57.9333 81.9836 57.9036C81.9911 57.9011 82.0084 57.8937 82.0158 57.8912L82.0628 57.8689C82.1321 57.8368 82.184 57.8096 82.236 57.7824C82.2582 57.77 82.283 57.7576 82.3077 57.7453C82.3151 57.7403 82.3225 57.7378 82.3275 57.7329C82.3349 57.7279 82.3398 57.7255 82.3448 57.723C82.3646 57.7131 82.3819 57.7007 82.3992 57.6884L82.4635 57.6463C82.4982 57.6265 82.5254 57.6092 82.5501 57.5944C82.56 57.5869 82.5699 57.5795 82.5798 57.5721C82.607 57.5523 82.6367 57.5301 82.6688 57.5078L82.7109 57.4781C82.7282 57.4658 82.748 57.4534 82.7628 57.4385C82.7653 57.4361 82.7653 57.4361 82.7678 57.4336C82.7752 57.4262 82.7826 57.4187 82.79 57.4138L82.9632 57.2654C82.9731 57.2555 82.9854 57.2431 83.0003 57.2308C83.025 57.206 83.0498 57.1788 83.072 57.1541C83.0968 57.1269 83.124 57.1021 83.1487 57.0749L83.1512 57.0724C83.1611 57.0601 83.171 57.0477 83.1809 57.0378C83.2105 57.0032 83.2378 56.9686 83.2674 56.9314C83.2798 56.9166 83.2946 56.8993 83.3095 56.882C83.312 56.8795 83.3169 56.8746 83.3194 56.8696C83.3293 56.8548 83.3392 56.8399 83.3491 56.8251C83.3886 56.7731 83.4233 56.7187 83.4579 56.6643C83.4653 56.6544 83.4727 56.6445 83.4802 56.6322C83.4876 56.6223 83.495 56.6124 83.5024 56.6C83.5049 56.595 83.5098 56.5901 83.5123 56.5852C83.5717 56.4837 83.6162 56.3947 83.6583 56.3032C83.6632 56.2933 83.6682 56.2834 83.6731 56.2735C83.6756 56.2685 83.6781 56.2636 83.6805 56.2586L83.7028 56.2017C83.7201 56.1597 83.7424 56.1003 83.7622 56.041L83.8042 55.9148C83.8141 55.8802 83.8289 55.8258 83.8413 55.7713L83.8537 55.7194C83.8562 55.707 83.8611 55.6947 83.8611 55.6823C83.8611 55.6773 83.8636 55.66 83.866 55.6551C83.8784 55.5957 83.8834 55.5388 83.8908 55.4795C83.8908 55.4646 83.8957 55.4399 83.8982 55.4127L83.9007 55.3805C83.9081 55.2939 83.9106 55.2024 83.9081 55.1109C83.9007 54.9946 83.8883 54.8907 83.8685 54.7943C83.8562 54.7522 83.8463 54.725 83.8388 54.6929C83.8215 54.6285 83.8067 54.5593 83.7844 54.495C83.7819 54.49 83.7819 54.4826 83.7795 54.4777C83.7523 54.4084 83.7251 54.3416 83.6904 54.2798C83.6855 54.2699 83.6781 54.2575 83.6731 54.2451C83.6682 54.2377 83.6632 54.2328 83.6583 54.2253L83.6261 54.1685C83.6113 54.1412 83.5964 54.114 83.5791 54.0868L83.5247 54.0077L80.2843 49.5898C80.2818 49.5997 80.2793 49.6121 80.2793 49.622C80.2744 49.6591 80.2645 49.6962 80.2571 49.7308L80.2497 49.7605C80.2323 49.8446 80.2101 49.9262 80.1853 50.0054C80.173 50.0499 80.1532 50.1068 80.1334 50.1588C80.1186 50.2033 80.0963 50.2627 80.0716 50.3245L80.0567 50.3641C80.0345 50.421 80.0147 50.4655 79.9924 50.5125C79.9405 50.6287 79.8712 50.7549 79.7995 50.8786C79.7846 50.9033 79.7723 50.9231 79.7574 50.9429C79.7525 50.9503 79.7351 50.9775 79.7302 50.9849C79.6832 51.0542 79.6362 51.1235 79.5867 51.1903C79.5694 51.2175 79.5422 51.2521 79.515 51.2842L79.4903 51.3164C79.4482 51.3708 79.4086 51.4203 79.3691 51.4648C79.3171 51.5217 79.2751 51.5687 79.2305 51.6108C79.2058 51.638 79.1687 51.6775 79.1291 51.7171C79.0722 51.7715 79.0252 51.8136 78.9782 51.8557L78.8669 51.9496C78.8397 51.9744 78.8026 52.0016 78.7655 52.0288L78.7235 52.061C78.6715 52.1005 78.6295 52.1327 78.5849 52.1624C78.528 52.202 78.4761 52.2341 78.4241 52.2663L78.392 52.2885C78.3549 52.3133 78.3153 52.338 78.2757 52.3603L78.1521 52.4271C78.0779 52.4666 78.0086 52.5013 77.9344 52.5359C77.9072 52.5507 77.8626 52.568 77.8206 52.5878C77.7068 52.6373 77.6004 52.6769 77.4966 52.709L77.3976 52.7437C77.2294 52.7956 77.0859 52.8302 76.94 52.855L68.7722 54.3614L48.5506 58.094C48.2661 58.1435 47.994 58.1509 47.7269 58.1163L42.7006 57.4311C42.5447 57.4113 42.3592 57.4138 42.1836 57.446L28.7396 59.9294C28.5937 59.974 28.4502 59.9863 28.3092 59.9888ZM83.3045 56.8944C83.3045 56.8968 83.3021 56.8993 83.3021 56.9018C83.3021 56.8993 83.3021 56.8968 83.3045 56.8944Z" fill="#F4F7FB"/>
<path d="M68.3526 30.8288C68.2141 30.8535 68.083 30.8659 67.9494 30.8659C67.8752 30.8659 67.8035 30.8609 67.7293 30.8535C67.7169 30.851 67.7021 30.8486 67.6922 30.8436C67.6328 30.8387 67.5734 30.8288 67.5215 30.8139C67.4943 30.809 67.4696 30.7991 67.4423 30.7941C67.4003 30.7818 67.3607 30.7743 67.3211 30.7595C67.2964 30.7496 67.2766 30.7422 67.2568 30.7323C67.2148 30.715 67.1752 30.7001 67.1331 30.6803C67.1134 30.6704 67.0911 30.6606 67.0713 30.6482C67.0367 30.6284 66.9946 30.6061 66.96 30.5839C66.9402 30.569 66.9179 30.5542 66.8982 30.5369C66.866 30.5171 66.8338 30.4924 66.8042 30.4701C66.7794 30.4528 66.7596 30.433 66.7398 30.4107C66.7126 30.386 66.6879 30.3637 66.6632 30.3365C66.6384 30.3118 66.6211 30.2895 66.6013 30.2623C66.5865 30.2475 66.5741 30.2301 66.5593 30.2153C66.5543 30.2054 66.5444 30.198 66.5395 30.1881L62.2725 24.3702C62.1884 24.2737 62.0376 24.1674 62.0351 24.0462L61.9856 23.9794L61.9831 23.9769C61.9708 23.9596 61.9559 23.9398 61.946 23.92C61.9361 23.9052 61.9287 23.8903 61.9188 23.8755C61.904 23.8483 61.8867 23.8236 61.8718 23.7963C61.8669 23.784 61.8595 23.7766 61.8545 23.7642C61.8496 23.7518 61.8421 23.737 61.8372 23.7271C61.8224 23.6925 61.805 23.6553 61.7902 23.6207C61.7877 23.6059 61.7778 23.5935 61.7754 23.5787C61.7729 23.5688 61.7704 23.5613 61.7655 23.5515C61.7407 23.4871 61.7234 23.4204 61.7086 23.3511C61.7086 23.3461 61.7061 23.3412 61.7061 23.3387C61.7061 23.3363 61.7061 23.3362 61.7061 23.3362C61.7011 23.3016 61.6962 23.2645 61.6913 23.2299C61.6888 23.2027 61.6814 23.1804 61.6789 23.1532C61.6764 23.1161 61.6789 23.0741 61.6764 23.0345C61.6764 23.0097 61.6739 22.985 61.6764 22.9603C61.6764 22.9133 61.6814 22.8688 61.6863 22.8218C61.6888 22.802 61.6888 22.7846 61.6913 22.7624C61.7011 22.6956 61.711 22.6313 61.7284 22.5596L62.6164 18.7997C62.6584 18.6216 62.6757 18.441 62.6658 18.2654C62.6535 18.0428 62.6362 17.8276 62.6188 17.6148C62.6139 17.548 62.6065 17.4788 62.6015 17.412C62.5867 17.271 62.5718 17.13 62.557 16.9915C62.5471 16.9148 62.5372 16.8406 62.5273 16.7689C62.51 16.6402 62.4927 16.5141 62.4754 16.3879C62.463 16.3187 62.4556 16.247 62.4432 16.1752C62.4234 16.0466 62.3987 15.9155 62.3764 15.7893C62.3641 15.7324 62.3566 15.6706 62.3443 15.6162C62.3195 15.4974 62.2948 15.3812 62.2676 15.2674C62.2577 15.2179 62.2478 15.1635 62.2354 15.1165C62.1983 14.9508 62.1563 14.7925 62.1142 14.6366C62.1093 14.6168 62.1019 14.5946 62.0969 14.5748C62.0598 14.4437 62.0202 14.3101 61.9831 14.184C61.9658 14.1345 61.9485 14.085 61.9337 14.0331C61.9015 13.9366 61.8693 13.8426 61.8372 13.7511C61.8248 13.7165 61.81 13.6769 61.7951 13.6422C61.7358 13.4815 61.6739 13.3256 61.6096 13.1723C61.5973 13.1426 61.5849 13.1129 61.5725 13.0832C61.5033 12.9175 61.4266 12.7567 61.3474 12.6034C61.3301 12.5662 61.3103 12.5267 61.2881 12.4846C61.2386 12.3881 61.1842 12.2942 61.1297 12.2002C61.11 12.1631 61.0877 12.1259 61.0679 12.0913C60.9937 11.9676 60.922 11.8464 60.8453 11.7302C60.781 11.6362 60.7167 11.5446 60.6523 11.4531L65.2062 17.6618C65.2705 17.7509 65.3324 17.8399 65.3967 17.9339C65.3967 17.9364 65.3967 17.9364 65.3967 17.9364C65.4758 18.0551 65.5501 18.1739 65.6218 18.2975C65.6416 18.3322 65.6638 18.3668 65.6836 18.4064C65.7405 18.5004 65.79 18.5944 65.8419 18.6933C65.8543 18.7156 65.8691 18.7403 65.879 18.7626C65.8889 18.7774 65.8939 18.7923 65.8988 18.8071C65.978 18.9629 66.0547 19.1213 66.1239 19.287C66.1388 19.3167 66.1511 19.3463 66.161 19.376C66.2253 19.5294 66.2872 19.6852 66.3465 19.846C66.3564 19.8708 66.3639 19.8905 66.3738 19.9128C66.3787 19.9252 66.3861 19.9425 66.3886 19.9549C66.4208 20.0489 66.4529 20.1429 66.4851 20.2368C66.4999 20.2863 66.5172 20.3358 66.5345 20.3877C66.5716 20.5164 66.6112 20.6499 66.6483 20.781C66.6533 20.8008 66.6607 20.8181 66.6656 20.8404C66.7077 20.9962 66.7473 21.1546 66.7868 21.3203C66.7992 21.3673 66.8066 21.4192 66.819 21.4712C66.8462 21.585 66.8709 21.7037 66.8957 21.8199C66.8982 21.8348 66.9006 21.8496 66.9056 21.8645C66.9155 21.9065 66.9204 21.9535 66.9303 21.9931C66.9551 22.1192 66.9773 22.2479 66.9971 22.3814C67.0095 22.4482 67.0169 22.52 67.0293 22.5892C67.0466 22.7154 67.0639 22.8415 67.0812 22.9702C67.0911 23.0444 67.0985 23.1161 67.1084 23.1928C67.1257 23.3313 67.1406 23.4723 67.1529 23.6158C67.1628 23.6801 67.1678 23.7469 67.1727 23.8161C67.19 24.0289 67.2074 24.2416 67.2197 24.4667C67.2222 24.4964 67.2222 24.526 67.2222 24.5557C67.2222 24.7066 67.2049 24.8526 67.1703 25.0034L66.4208 28.1771L68.3526 30.8288Z" fill="#70798E"/>
<path d="M67.9483 31.3575C67.8617 31.3575 67.7751 31.3501 67.6886 31.3451C67.6614 31.3426 67.6342 31.3377 67.6069 31.3327C67.5303 31.3229 67.461 31.3105 67.3967 31.2932C67.3794 31.2882 67.3621 31.2833 67.3447 31.2783C67.3349 31.2758 67.3126 31.2709 67.3027 31.266L67.2755 31.2585C67.231 31.2462 67.184 31.2338 67.1419 31.2165C67.1147 31.2066 67.085 31.1942 67.0578 31.1818L67.0306 31.1695C66.9935 31.1546 66.9589 31.1398 66.9218 31.1225C66.8896 31.1076 66.855 31.0903 66.8228 31.0705L66.7931 31.0532C66.756 31.0334 66.7189 31.0112 66.6843 30.9889C66.6521 30.9667 66.6274 30.9493 66.6051 30.9296C66.568 30.9048 66.5285 30.8776 66.4938 30.8479C66.4666 30.8281 66.432 30.796 66.3998 30.7638C66.3652 30.7341 66.3331 30.702 66.3034 30.6698C66.2737 30.6401 66.2489 30.608 66.2217 30.5758C66.2143 30.5659 66.2044 30.556 66.197 30.5461C66.1772 30.5264 66.1698 30.5165 66.1574 30.4967C66.1475 30.4843 66.1401 30.4744 66.1327 30.462L61.8905 24.6763C61.8781 24.6639 61.8657 24.6516 61.8534 24.6392C61.7693 24.5551 61.6406 24.4314 61.5763 24.2509C61.5739 24.2484 61.5714 24.2459 61.5714 24.2434L61.5343 24.1865C61.5293 24.1791 61.5244 24.1692 61.5194 24.1618L61.4749 24.0851C61.4626 24.0653 61.4527 24.048 61.4403 24.0282C61.4254 24.0035 61.418 23.9887 61.4106 23.9738C61.4081 23.9664 61.3958 23.9417 61.3933 23.9342C61.3883 23.9219 61.3859 23.9194 61.3809 23.907L61.3636 23.8699C61.3537 23.8477 61.3438 23.8254 61.3339 23.8031C61.329 23.7932 61.3265 23.7809 61.3216 23.771C61.3166 23.7561 61.3092 23.7388 61.3018 23.719C61.2721 23.6325 61.2473 23.5508 61.2276 23.4593C61.2226 23.437 61.2177 23.4148 61.2152 23.3925C61.2127 23.3752 61.2102 23.3554 61.2078 23.3381L61.2028 23.3059L61.6852 23.1872L61.1979 23.2713C61.1954 23.249 61.1905 23.2293 61.188 23.207C61.183 23.1551 61.183 23.1229 61.183 23.0907C61.183 23.0784 61.1806 23.0437 61.1806 23.0314C61.1781 22.9992 61.1781 22.9671 61.1806 22.9374C61.1806 22.9003 61.183 22.8656 61.188 22.8285L61.1905 22.7914C61.1905 22.7766 61.1929 22.7642 61.1954 22.7494C61.1954 22.7296 61.1979 22.7073 61.2028 22.6851C61.2127 22.6109 61.2276 22.5268 61.2498 22.4377L62.1354 18.6853C62.165 18.5517 62.1799 18.4156 62.1725 18.2895C62.1601 18.0718 62.1428 17.864 62.1255 17.6563L62.0636 17.0453C62.0587 17.0107 62.0537 16.976 62.0488 16.9414L61.9845 16.464C61.9795 16.4318 61.9746 16.3923 61.9672 16.3527L61.9523 16.2587C61.9325 16.1301 61.9103 16.0039 61.8855 15.8827C61.8806 15.8604 61.8756 15.8258 61.8682 15.7912C61.8633 15.7689 61.8608 15.7442 61.8558 15.7219C61.8311 15.6032 61.8064 15.4919 61.7816 15.3806C61.7792 15.3707 61.7767 15.3632 61.7767 15.3533C61.7693 15.3138 61.7619 15.2742 61.752 15.2371C61.7124 15.0714 61.6728 14.918 61.6332 14.7646L61.6209 14.7176C61.5813 14.5841 61.5442 14.453 61.5071 14.3293C61.4947 14.2922 61.4724 14.2328 61.4551 14.1759C61.4304 14.0992 61.3982 14.0077 61.3661 13.9187C61.3562 13.8865 61.3438 13.8593 61.3339 13.8321C61.2696 13.6589 61.2127 13.5105 61.1509 13.3671C61.141 13.3399 61.1336 13.3225 61.1261 13.3077C61.1212 13.2978 61.1187 13.2904 61.1138 13.2805C61.047 13.1271 60.9777 12.9762 60.9035 12.8352C60.8986 12.8278 60.8961 12.8204 60.8912 12.813C60.8837 12.7957 60.8738 12.7759 60.8639 12.7586L60.8392 12.7116C60.7972 12.6299 60.7477 12.5434 60.6982 12.4568C60.671 12.4048 60.6537 12.3752 60.6364 12.3455C60.5671 12.2317 60.4978 12.1154 60.4261 12.0041C60.3742 11.9274 60.3123 11.8433 60.253 11.7592C60.2505 11.7568 60.2505 11.7543 60.248 11.7518C60.0971 11.5317 60.1441 11.2225 60.3618 11.0641C60.582 10.9058 60.8837 10.9479 61.0445 11.1656L65.6009 17.3743C65.6578 17.451 65.7122 17.5326 65.7691 17.6142L65.8012 17.6612C65.8111 17.6736 65.8185 17.6884 65.826 17.7008C65.9026 17.8146 65.9719 17.9333 66.0436 18.052C66.0708 18.099 66.0931 18.1386 66.1154 18.1807C66.1648 18.2623 66.2193 18.3637 66.2762 18.4701L66.2885 18.4948C66.2959 18.5097 66.3034 18.522 66.3108 18.5369C66.3232 18.5616 66.3355 18.5863 66.3454 18.6111C66.4345 18.7867 66.5062 18.9401 66.5705 19.0885C66.5878 19.1256 66.6051 19.1651 66.62 19.2023C66.6818 19.3507 66.7486 19.5139 66.8105 19.6846L66.8278 19.7291C66.8401 19.7563 66.85 19.786 66.8599 19.8157L66.9514 20.0829C66.9712 20.1447 66.9861 20.1867 67.0009 20.2288C67.0034 20.2362 67.0059 20.2461 67.0083 20.2535C67.0479 20.3846 67.085 20.5182 67.1246 20.6493L67.1419 20.7062C67.1889 20.8794 67.231 21.0426 67.2705 21.2133C67.2755 21.238 67.2829 21.2702 67.2903 21.3048L67.3027 21.3617C67.3299 21.4829 67.3571 21.6066 67.3819 21.7278L66.9044 21.8688L67.3893 21.7674C67.3942 21.7946 67.3992 21.8243 67.4041 21.8515L67.4115 21.896C67.4387 22.0395 67.4635 22.173 67.4833 22.3116C67.4882 22.3412 67.4956 22.3833 67.5006 22.4253L67.5971 23.1452C67.6144 23.2787 67.6292 23.4247 67.6416 23.5706C67.6515 23.6399 67.6564 23.7091 67.6638 23.7809C67.6812 23.9985 67.7009 24.2187 67.7133 24.4463C67.7158 24.4685 67.7158 24.5155 67.7158 24.5601C67.7158 24.7481 67.6935 24.9311 67.649 25.1191L66.9514 28.0726L68.7473 30.5239C68.8487 30.6624 68.871 30.843 68.8066 31.0013C68.7423 31.1596 68.6013 31.2734 68.4307 31.3031C68.255 31.3426 68.0992 31.3575 67.9483 31.3575ZM67.2458 30.1776C67.2458 30.1776 67.2582 30.185 67.2705 30.19L67.2755 30.1924L66.0214 28.4807C65.9348 28.3644 65.9051 28.216 65.9398 28.075L66.6892 24.9014C66.7165 24.7876 66.7288 24.6788 66.7288 24.5675C66.7288 24.5551 66.7288 24.5403 66.7288 24.5279C66.7165 24.288 66.6991 24.0777 66.6818 23.8724C66.6769 23.8155 66.6719 23.7561 66.6645 23.6992C66.6645 23.6893 66.662 23.6819 66.662 23.672C66.6497 23.536 66.6373 23.4024 66.62 23.2713L66.526 22.5762C66.521 22.5441 66.5161 22.5119 66.5111 22.4798C66.4889 22.3437 66.4666 22.22 66.4444 22.0964C66.4419 22.0815 66.4369 22.0518 66.432 22.0222L66.4246 21.9776C66.4246 21.9752 66.4196 21.9504 66.4196 21.9479C66.3924 21.8144 66.3677 21.7006 66.3429 21.5917C66.3355 21.5645 66.3306 21.5348 66.3256 21.5052L66.3133 21.4483C66.2737 21.2825 66.2341 21.1292 66.1945 20.9783L66.1797 20.9338C66.1426 20.8051 66.1055 20.6765 66.0684 20.5528C66.0486 20.4984 66.0313 20.444 66.014 20.3896L65.9249 20.1274C65.9224 20.1224 65.9224 20.1175 65.92 20.1125C65.9175 20.1076 65.915 20.1026 65.915 20.0977L65.8878 20.0309C65.8309 19.8751 65.7715 19.7267 65.7122 19.5832C65.7023 19.556 65.6949 19.5411 65.6874 19.5238C65.6825 19.5139 65.6775 19.5065 65.6751 19.4966C65.6157 19.3581 65.5489 19.2171 65.4623 19.0464C65.4574 19.034 65.45 19.0217 65.445 19.0093C65.4426 19.0068 65.4426 19.0044 65.4401 19.0019C65.4203 18.9673 65.4104 18.95 65.403 18.9326C65.3585 18.8485 65.3115 18.7595 65.2595 18.6729C65.2323 18.6234 65.215 18.5938 65.1977 18.5641C65.1284 18.4503 65.0616 18.3365 64.9874 18.2252C64.98 18.2153 64.975 18.2054 64.9676 18.193L64.9577 18.1782C64.9083 18.104 64.8588 18.0323 64.8068 17.963L62.7538 15.1654C62.7538 15.1678 62.7538 15.1703 62.7538 15.1728C62.781 15.289 62.8057 15.4053 62.8304 15.524C62.8354 15.5537 62.8428 15.5883 62.8478 15.623C62.8527 15.6452 62.8552 15.67 62.8601 15.6922C62.8873 15.8357 62.9121 15.9693 62.9319 16.1029C62.9368 16.1375 62.9442 16.1771 62.9492 16.2142L63.0333 16.8103C63.0382 16.8523 63.0456 16.8969 63.0506 16.9414L63.1149 17.5771C63.1322 17.7948 63.152 18.0149 63.1619 18.2425C63.1718 18.4626 63.152 18.6877 63.1001 18.9128L62.212 22.6752C62.1972 22.7321 62.1898 22.7791 62.1824 22.8285C62.1799 22.8459 62.1799 22.8607 62.1774 22.8755L62.1749 22.9176C62.1749 22.9324 62.1725 22.9473 62.1725 22.9621C62.1725 22.972 62.1725 22.9844 62.1725 22.9943V23.0091C62.1749 23.0363 62.1749 23.066 62.1749 23.0957C62.1774 23.1279 62.1824 23.1501 62.1848 23.1724C62.1848 23.1749 62.1898 23.1996 62.1923 23.2243L62.1947 23.2491C62.2046 23.2936 62.217 23.3406 62.2318 23.3826C62.2343 23.3876 62.2393 23.4049 62.2417 23.4098C62.2417 23.4123 62.2417 23.4148 62.2442 23.4173C62.2467 23.4247 62.2516 23.4346 62.2541 23.4445L62.264 23.4667C62.2739 23.4865 62.2813 23.5063 62.2912 23.5261C62.2961 23.5335 62.2986 23.5409 62.3011 23.5459C62.3036 23.5508 62.311 23.5632 62.3135 23.5706L62.3184 23.578C62.3308 23.5978 62.3407 23.6151 62.353 23.6349L62.3802 23.677C62.3827 23.6795 62.3827 23.6819 62.3852 23.6844L62.4347 23.7512C62.4693 23.7982 62.494 23.8501 62.5113 23.9045C62.5237 23.9169 62.5336 23.9268 62.546 23.9392C62.5831 23.9738 62.6177 24.0084 62.6474 24.0431C62.6573 24.053 62.6672 24.0653 62.6746 24.0777L66.9366 29.8906C66.9465 29.9005 66.9539 29.9104 66.9638 29.9228C66.9787 29.9376 66.9811 29.9401 66.9935 29.9574L67.0182 29.9871C67.0454 30.0143 67.0578 30.0267 67.0702 30.0366C67.0776 30.044 67.085 30.0489 67.0924 30.0564L67.1122 30.0762C67.132 30.091 67.1493 30.1034 67.1666 30.1157C67.1864 30.1281 67.2062 30.143 67.2235 30.1578C67.2285 30.1652 67.2359 30.1702 67.2458 30.1776ZM65.9076 20.0853C65.9076 20.0878 65.9076 20.0878 65.9076 20.0903C65.9101 20.0878 65.9076 20.0878 65.9076 20.0853Z" fill="#F4F7FB"/>
<path d="M54.7573 8.6875C55.0021 8.6875 55.252 8.69741 55.5068 8.7172C58.5814 8.96208 62.2473 10.8445 62.6653 18.2826C62.6752 18.4607 62.6579 18.6388 62.6134 18.8193L61.7254 22.5792C61.4533 23.7269 62.2547 24.6669 63.395 24.6669C63.5261 24.6669 63.6597 24.6545 63.7982 24.6298L69.3292 23.6107L71.8226 23.1506L74.8626 22.5891L75.5701 22.458C75.8421 22.4085 76.1068 22.3838 76.3666 22.3838C77.2496 22.3838 78.0436 22.6633 78.6472 23.1506C79.3398 23.7071 79.7826 24.5358 79.8271 25.5277C79.9236 27.6402 78.1698 29.6883 75.9139 30.1063L76.4952 29.9975C76.8068 29.9406 77.1136 29.9134 77.4104 29.9134C79.5847 29.9134 81.2939 31.3926 81.3879 33.5298C81.4968 35.9588 79.4833 38.3137 76.8909 38.7911L76.651 38.8356C76.9231 38.7861 77.1903 38.7614 77.45 38.7614C79.3398 38.7614 80.824 40.0502 80.9081 41.9078C80.9724 43.3623 80.161 44.7871 78.9143 45.6677C78.3504 46.0659 77.6973 46.3529 76.9948 46.4815L76.5966 46.5557C76.8044 46.5161 77.0097 46.4988 77.2076 46.4988C78.6521 46.4988 79.785 47.4808 79.8494 48.9007C79.9186 50.5159 78.5804 52.0817 76.8588 52.3983L76.2082 52.517L68.691 53.9047L48.4694 57.6349C48.3383 57.6596 48.2047 57.672 48.0761 57.672C47.9821 57.672 47.8906 57.6671 47.8015 57.6547L42.7777 56.9695C42.6886 56.9571 42.5946 56.9522 42.5031 56.9522C42.372 56.9522 42.2409 56.9646 42.1098 56.9893L28.6609 59.4703C28.5248 59.4951 28.3937 59.5074 28.2651 59.5074C27.3227 59.5074 26.5806 58.8668 26.5385 57.9392L25.5565 36.0479C25.5095 35.0016 26.3703 33.9849 27.4884 33.7672L43.4035 30.6802C44.1109 30.5442 44.7491 30.0742 45.088 29.4385L51.3017 17.8299C51.4798 17.496 51.5663 17.1373 51.549 16.791L51.2942 11.0844C51.2472 9.98366 52.1971 8.93486 53.3721 8.7815C53.7901 8.72461 54.2601 8.6875 54.7573 8.6875Z" fill="#203686"/>
<path d="M28.2578 59.9978C27.0235 59.9978 26.0884 59.1395 26.039 57.9571L25.0569 36.0683C25.0001 34.7697 26.0241 33.5452 27.3895 33.2806L43.3021 30.1935C43.8612 30.0847 44.3757 29.7062 44.6453 29.2041L50.859 17.5955C50.995 17.3408 51.0618 17.0687 51.0494 16.8164L50.7897 11.1024C50.7303 9.73695 51.8534 8.47541 53.2979 8.28495C54.0672 8.18353 54.8241 8.16128 55.5439 8.21817C58.7745 8.47543 62.7174 10.4246 63.1577 18.2486C63.17 18.4786 63.1478 18.7087 63.0933 18.9313L62.2053 22.6862C62.1138 23.077 62.1831 23.4431 62.4007 23.7202C62.6803 24.0739 63.1774 24.2322 63.7043 24.1357L75.4761 21.9639C76.7575 21.7289 78.0413 22.0233 78.954 22.7579C79.7851 23.4258 80.27 24.4004 80.317 25.4987C80.3862 27.0175 79.5971 28.5115 78.3554 29.4985C80.3565 29.8769 81.7863 31.4427 81.8753 33.5007C81.9644 35.4969 80.7523 37.451 78.9491 38.5221C80.359 39.044 81.3212 40.2981 81.393 41.8763C81.4622 43.4495 80.6187 45.0549 79.189 46.0641C79.0406 46.168 78.8897 46.2645 78.7314 46.3535C79.6639 46.8309 80.2823 47.7461 80.3343 48.8716C80.4159 50.7219 78.8922 52.5202 76.938 52.8788L48.5462 58.1154C48.279 58.1674 47.9945 58.1748 47.7225 58.1377L42.6986 57.4525C42.5353 57.4302 42.3572 57.4352 42.189 57.4673L28.7377 59.9483C28.5818 59.983 28.4186 59.9978 28.2578 59.9978ZM54.7573 9.17791C54.3269 9.17791 53.8792 9.20761 53.4266 9.26697C52.5113 9.3857 51.742 10.2242 51.7791 11.0578L52.0339 16.7644C52.0537 17.1948 51.9498 17.6425 51.7297 18.0581L45.516 29.6691C45.1054 30.4384 44.346 30.9974 43.4901 31.1632L27.5775 34.2502C26.6969 34.4209 26.0093 35.2149 26.0464 36.0213L27.0284 57.9126C27.0556 58.5582 27.5627 59.0084 28.2602 59.0084C28.3617 59.0084 28.4656 58.9985 28.567 58.9812L42.0159 56.5002C42.283 56.4482 42.57 56.4408 42.8396 56.4779L47.8635 57.1631C48.0267 57.1854 48.2048 57.1804 48.373 57.1483L76.7674 51.9092C78.254 51.6371 79.4141 50.2964 79.3547 48.9186C79.3028 47.7832 78.4197 46.9917 77.2077 46.9892C77.037 46.9892 76.8638 47.0065 76.6882 47.0387C76.4186 47.0882 76.1613 46.9101 76.1119 46.6429C76.0624 46.3733 76.238 46.116 76.5076 46.0666H76.5101L76.9034 45.9924C77.5119 45.881 78.108 45.6263 78.6275 45.2602C79.7827 44.4439 80.4678 43.165 80.4134 41.9258C80.3442 40.3773 79.0975 39.2543 77.4476 39.2543C77.2151 39.2543 76.9776 39.2766 76.7401 39.3211C76.4705 39.3706 76.2133 39.1925 76.1638 38.9253C76.1143 38.6582 76.29 38.3984 76.5571 38.349L76.797 38.3044C79.1544 37.8716 80.9922 35.7393 80.8933 33.5502C80.8117 31.7296 79.3473 30.4063 77.4105 30.4063C77.1409 30.4063 76.8613 30.431 76.5843 30.4829L76.003 30.5918C75.7334 30.6413 75.4761 30.4632 75.4267 30.196C75.3772 29.9264 75.5553 29.6691 75.8224 29.6197C77.8434 29.2462 79.4166 27.4206 79.3325 25.5506C79.2978 24.7393 78.9441 24.0244 78.3381 23.5346C77.6405 22.9731 76.6684 22.7579 75.6592 22.9434L63.8874 25.1153C63.0018 25.2785 62.1336 24.9817 61.6265 24.341C61.2159 23.8216 61.0798 23.1562 61.2431 22.466L62.1311 18.7087C62.1633 18.5751 62.1756 18.4415 62.1707 18.3104C61.8541 12.683 59.5363 9.53658 55.4673 9.21254C55.2347 9.18781 54.9948 9.17791 54.7573 9.17791Z" fill="#F4F7FB"/>
<path d="M102.725 0L103.148 2.64124C103.401 4.22522 104.489 5.46437 106.05 5.9532L108.661 6.76794L105.791 7.58266C104.072 8.0715 102.591 9.31065 101.831 10.8946L100.565 13.5359L100.141 10.8946C99.8868 9.31065 98.7992 8.0715 97.2379 7.58266L94.6289 6.76794L97.4975 5.9532C99.216 5.46437 100.698 4.22522 101.457 2.64124L102.725 0Z" fill="#203686"/>
<path d="M12.166 19.1016L12.49 21.1251C12.6852 22.3377 13.5189 23.2908 14.7163 23.664L16.7171 24.2874L14.5174 24.9127C13.1986 25.2859 12.0637 26.2352 11.4801 27.4497L10.51 29.4751L10.186 27.4497C9.99088 26.2371 9.15721 25.2859 7.95785 24.9127L5.95703 24.2874L8.1568 23.664C9.47552 23.2908 10.6105 22.3396 11.194 21.1251L12.166 19.1016Z" fill="#203686"/>
<path d="M92.134 56L92.2841 56.9764C92.3758 57.5596 92.763 58.0183 93.3208 58.1986L94.25 58.5L93.2291 58.8014C92.616 58.9816 92.0866 59.4404 91.8164 60.0236L91.366 61L91.2159 60.0236C91.1242 59.4404 90.7386 58.9816 90.1808 58.8014L89.25 58.5L90.2724 58.1986C90.8856 58.0183 91.4134 57.5596 91.6836 56.9764L92.134 56Z" fill="#203686"/>
<path d="M2.86007 28.6484L2.98299 29.4466C3.05674 29.9254 3.37504 30.301 3.83178 30.4472L4.59259 30.6941L3.75674 30.9409C3.25471 31.0884 2.82125 31.464 2.59999 31.9429L2.23123 32.741L2.10831 31.9429C2.03456 31.464 1.71756 31.0884 1.26081 30.9409L0.5 30.6941L1.33586 30.4472C1.83789 30.301 2.27005 29.9254 2.49131 29.4466L2.86007 28.6484Z" fill="#203686"/>
</svg>
